#pragma bank 255
#include "hUGEDriver.h"
#include <stddef.h>
#include "hUGEDriverRoutines.h"
static const unsigned char order_cnt = 80;

static const unsigned char P0[] = {
    DN(A_4,1,0xC0C),
    DN(C_5,1,0xC0C),
    DN(E_5,1,0xC0B),
    DN(F_5,2,0xC0B),
    DN(A_4,2,0xC0A),
    DN(C_5,2,0xC0A),
    DN(E_5,3,0xC09),
    DN(F_5,3,0xC09),
    DN(A_4,3,0xC08),
    DN(C_5,4,0xC08),
    DN(E_5,4,0xC07),
    DN(F_5,4,0xC07),
    DN(A_4,4,0xC06),
    DN(C_5,1,0xC06),
    DN(E_5,1,0xC05),
    DN(F_5,1,0xC05),
    DN(A_4,1,0xC04),
    DN(C_5,1,0xC04),
    DN(E_5,1,0xC03),
    DN(F_5,2,0xC03),
    DN(A_4,2,0xC02),
    DN(C_5,2,0xC02),
    DN(E_5,3,0xC01),
    DN(F_5,3,0xC01),
    DN(A_4,1,0xC0C),
    DN(C_5,1,0xC0C),
    DN(E_5,1,0xC0B),
    DN(F_5,2,0xC0B),
    DN(A_4,2,0xC0A),
    DN(C_5,2,0xC0A),
    DN(E_5,3,0xC09),
    DN(F_5,3,0xC09),
    DN(A_4,1,0xC0C),
    DN(B_4,1,0xC0C),
    DN(D_5,1,0xC0B),
    DN(F_5,1,0xC0B),
    DN(A_4,2,0xC0A),
    DN(B_4,2,0xC0A),
    DN(D_5,3,0xC09),
    DN(F_5,3,0xC09),
    DN(A_4,3,0xC08),
    DN(B_4,4,0xC08),
    DN(D_5,4,0xC07),
    DN(F_5,4,0xC07),
    DN(A_4,4,0xC06),
    DN(B_4,1,0xC06),
    DN(D_5,1,0xC05),
    DN(F_5,1,0xC05),
    DN(A_4,1,0xC04),
    DN(B_4,1,0xC04),
    DN(D_5,1,0xC03),
    DN(F_5,2,0xC03),
    DN(A_4,2,0xC02),
    DN(B_4,2,0xC02),
    DN(D_5,3,0xC01),
    DN(F_5,3,0xC01),
    DN(A_4,1,0xC0C),
    DN(B_4,1,0xC0C),
    DN(D_5,1,0xC0B),
    DN(F_5,1,0xC0B),
    DN(A_4,2,0xC0A),
    DN(B_4,2,0xC0A),
    DN(D_5,3,0xC09),
    DN(F_5,3,0xC09),
};
static const unsigned char P1[] = {
    DN(___,0,0x000),
    DN(___,0,0x000),
    DN(___,0,0x000),
    DN(___,0,0x000),
    DN(___,0,0x000),
    DN(___,0,0x000),
    DN(___,0,0x000),
    DN(___,0,0x000),
    DN(___,0,0x000),
    DN(___,0,0x000),
    DN(___,0,0x000),
    DN(___,0,0x000),
    DN(___,0,0x000),
    DN(___,0,0x000),
    DN(___,0,0x000),
    DN(___,0,0x000),
    DN(___,0,0x000),
    DN(___,0,0x000),
    DN(___,0,0x000),
    DN(___,0,0x000),
    DN(___,0,0x000),
    DN(___,0,0x000),
    DN(___,0,0x000),
    DN(___,0,0x000),
    DN(___,0,0x000),
    DN(___,0,0x000),
    DN(___,0,0x000),
    DN(___,0,0x000),
    DN(___,0,0x000),
    DN(___,0,0x000),
    DN(___,0,0x000),
    DN(___,0,0x000),
    DN(___,0,0x000),
    DN(___,0,0x000),
    DN(___,0,0x000),
    DN(___,0,0x000),
    DN(___,0,0x000),
    DN(___,0,0x000),
    DN(___,0,0x000),
    DN(___,0,0x000),
    DN(___,0,0x000),
    DN(___,0,0x000),
    DN(___,0,0x000),
    DN(___,0,0x000),
    DN(___,0,0x000),
    DN(___,0,0x000),
    DN(___,0,0x000),
    DN(___,0,0x000),
    DN(___,0,0x000),
    DN(___,0,0x000),
    DN(___,0,0x000),
    DN(___,0,0x000),
    DN(___,0,0x000),
    DN(___,0,0x000),
    DN(___,0,0x000),
    DN(___,0,0x000),
    DN(___,0,0x000),
    DN(___,0,0x000),
    DN(___,0,0x000),
    DN(___,0,0x000),
    DN(___,0,0x000),
    DN(___,0,0x000),
    DN(___,0,0x000),
    DN(___,0,0x000),
};
static const unsigned char P2[] = {
    DN(Fs5,9,0x2FF),
    DN(___,0,0x2FF),
    DN(C_4,8,0x000),
    DN(___,0,0xE00),
    DN(C_4,7,0x000),
    DN(___,0,0xE00),
    DN(C_4,7,0x000),
    DN(___,0,0xE00),
    DN(Fs5,9,0x2FF),
    DN(___,0,0x2FF),
    DN(C_4,6,0x000),
    DN(___,0,0xE00),
    DN(C_4,5,0x000),
    DN(___,0,0xE00),
    DN(C_4,5,0x000),
    DN(___,0,0xE00),
    DN(Fs5,9,0x2FF),
    DN(___,0,0x2FF),
    DN(C_4,4,0x000),
    DN(___,0,0xE00),
    DN(C_4,4,0x000),
    DN(___,0,0xE00),
    DN(C_4,3,0x000),
    DN(___,0,0xE00),
    DN(Fs5,9,0x2FF),
    DN(___,0,0x2FF),
    DN(C_4,2,0x000),
    DN(___,0,0xE00),
    DN(C_6,1,0x000),
    DN(___,0,0x000),
    DN(C_5,1,0x000),
    DN(___,0,0xE00),
    DN(Fs5,9,0x2FF),
    DN(___,0,0x2FF),
    DN(F_4,8,0x000),
    DN(___,0,0xE00),
    DN(F_4,7,0x000),
    DN(___,0,0xE00),
    DN(F_4,7,0x000),
    DN(___,0,0xE00),
    DN(Fs5,9,0x2FF),
    DN(___,0,0x2FF),
    DN(F_4,6,0x000),
    DN(___,0,0xE00),
    DN(F_4,5,0x000),
    DN(___,0,0xE00),
    DN(F_4,5,0x000),
    DN(___,0,0xE00),
    DN(Fs5,9,0x2FF),
    DN(___,0,0x2FF),
    DN(Fs4,4,0x000),
    DN(___,0,0xE00),
    DN(Fs4,4,0x000),
    DN(___,0,0xE00),
    DN(Fs4,3,0x000),
    DN(___,0,0xE00),
    DN(Fs5,9,0x2FF),
    DN(___,0,0x2FF),
    DN(Fs4,2,0x000),
    DN(___,0,0xE00),
    DN(Fs6,1,0x000),
    DN(___,0,0x000),
    DN(Fs5,1,0x000),
    DN(___,0,0xE00),
};
static const unsigned char P3[] = {
    DN(Fs7,1,0xF04),
    DN(___,0,0xF03),
    DN(___,0,0xF04),
    DN(___,0,0xF03),
    DN(Fs7,2,0xF04),
    DN(___,0,0xF03),
    DN(___,0,0xF04),
    DN(___,0,0xF03),
    DN(Fs7,1,0xF04),
    DN(___,0,0xF03),
    DN(___,0,0xF04),
    DN(___,0,0xF03),
    DN(Fs7,2,0xF04),
    DN(___,0,0xF03),
    DN(___,0,0xF04),
    DN(___,0,0xF03),
    DN(Fs7,1,0xF04),
    DN(___,0,0xF03),
    DN(___,0,0xF04),
    DN(___,0,0xF03),
    DN(Fs7,2,0xF04),
    DN(___,0,0xF03),
    DN(___,0,0xF04),
    DN(___,0,0xF03),
    DN(Fs7,1,0xF04),
    DN(___,0,0xF03),
    DN(Fs7,1,0xF04),
    DN(___,0,0xF03),
    DN(Fs7,2,0xF04),
    DN(___,0,0xF03),
    DN(___,0,0xF04),
    DN(___,0,0xF03),
    DN(Fs7,1,0xF04),
    DN(___,0,0xF03),
    DN(___,0,0xF04),
    DN(___,0,0xF03),
    DN(Fs7,2,0xF04),
    DN(___,0,0xF03),
    DN(___,0,0xF04),
    DN(___,0,0xF03),
    DN(Fs7,1,0xF04),
    DN(___,0,0xF03),
    DN(___,0,0xF04),
    DN(___,0,0xF03),
    DN(Fs7,2,0xF04),
    DN(___,0,0xF03),
    DN(___,0,0xF04),
    DN(___,0,0xF03),
    DN(Fs7,1,0xF04),
    DN(___,0,0xF03),
    DN(___,0,0xF04),
    DN(___,0,0xF03),
    DN(Fs7,2,0xF04),
    DN(___,0,0xF03),
    DN(___,0,0xF04),
    DN(___,0,0xF03),
    DN(Fs7,1,0xF04),
    DN(___,0,0xF03),
    DN(Fs7,1,0xF04),
    DN(___,0,0xF03),
    DN(Fs7,2,0xF04),
    DN(___,0,0xF03),
    DN(___,0,0xF04),
    DN(___,0,0xF03),
};
static const unsigned char P4[] = {
    DN(G_4,1,0xC0C),
    DN(A_4,1,0xC0C),
    DN(C_5,1,0xC0B),
    DN(E_5,2,0xC0B),
    DN(G_4,2,0xC0A),
    DN(A_4,2,0xC0A),
    DN(C_5,3,0xC09),
    DN(E_5,3,0xC09),
    DN(G_4,3,0xC08),
    DN(A_4,4,0xC08),
    DN(C_5,4,0xC07),
    DN(E_5,4,0xC07),
    DN(G_4,4,0xC06),
    DN(A_4,1,0xC06),
    DN(C_5,1,0xC05),
    DN(E_5,1,0xC05),
    DN(G_4,1,0xC04),
    DN(A_4,1,0xC04),
    DN(C_5,1,0xC03),
    DN(E_5,2,0xC03),
    DN(G_4,2,0xC02),
    DN(A_4,2,0xC02),
    DN(C_5,3,0xC01),
    DN(E_5,3,0xC01),
    DN(G_4,1,0xC0C),
    DN(A_4,1,0xC0C),
    DN(C_5,1,0xC0B),
    DN(E_5,2,0xC0B),
    DN(G_4,2,0xC0A),
    DN(A_4,2,0xC0A),
    DN(C_5,3,0xC09),
    DN(E_5,3,0xC09),
    DN(F_4,1,0xC0C),
    DN(A_4,1,0xC0C),
    DN(C_5,1,0xC0B),
    DN(E_5,1,0xC0B),
    DN(F_4,2,0xC0A),
    DN(A_4,2,0xC0A),
    DN(C_5,3,0xC09),
    DN(E_5,3,0xC09),
    DN(F_4,3,0xC08),
    DN(A_4,4,0xC08),
    DN(C_5,4,0xC07),
    DN(E_5,4,0xC07),
    DN(F_4,4,0xC06),
    DN(A_4,1,0xC06),
    DN(C_5,1,0xC05),
    DN(E_5,1,0xC05),
    DN(Fs4,1,0xC0C),
    DN(A_4,1,0xC0C),
    DN(C_5,1,0xC0B),
    DN(E_5,1,0xC0B),
    DN(Fs4,2,0xC0A),
    DN(A_4,2,0xC0A),
    DN(C_5,3,0xC09),
    DN(E_5,3,0xC09),
    DN(Fs4,1,0xC0C),
    DN(A_4,1,0xC0C),
    DN(C_5,1,0xC0B),
    DN(Ds5,1,0xC0B),
    DN(Fs4,2,0xC0A),
    DN(A_4,2,0xC0A),
    DN(C_5,3,0xC09),
    DN(Ds5,3,0xC09),
};
static const unsigned char P5[] = {
    DN(G_4,1,0xC0C),
    DN(As4,1,0xC0C),
    DN(Cs5,1,0xC0B),
    DN(E_5,2,0xC0B),
    DN(G_4,2,0xC0A),
    DN(As4,2,0xC0A),
    DN(Cs5,3,0xC09),
    DN(E_5,3,0xC09),
    DN(G_4,3,0xC08),
    DN(As4,4,0xC08),
    DN(Cs5,4,0xC07),
    DN(E_5,4,0xC07),
    DN(G_4,4,0xC06),
    DN(As4,1,0xC06),
    DN(Cs5,1,0xC05),
    DN(E_5,1,0xC05),
    DN(G_4,1,0xC04),
    DN(As4,1,0xC04),
    DN(Cs5,1,0xC03),
    DN(E_5,2,0xC03),
    DN(G_4,2,0xC02),
    DN(As4,2,0xC02),
    DN(Cs5,3,0xC01),
    DN(E_5,3,0xC01),
    DN(G_4,1,0xC0C),
    DN(As4,1,0xC0C),
    DN(Cs5,1,0xC0B),
    DN(E_5,2,0xC0B),
    DN(G_4,2,0xC0A),
    DN(As4,2,0xC0A),
    DN(Cs5,3,0xC09),
    DN(E_5,3,0xC09),
    DN(G_4,1,0xC0C),
    DN(A_4,1,0xC0C),
    DN(Cs5,1,0xC0B),
    DN(E_5,1,0xC0B),
    DN(G_4,2,0xC0A),
    DN(A_4,2,0xC0A),
    DN(Cs5,3,0xC09),
    DN(E_5,3,0xC09),
    DN(G_4,3,0xC08),
    DN(A_4,4,0xC08),
    DN(Cs5,4,0xC07),
    DN(E_5,4,0xC07),
    DN(G_4,4,0xC06),
    DN(A_4,1,0xC06),
    DN(Cs5,1,0xC05),
    DN(E_5,1,0xC05),
    DN(G_4,1,0xC04),
    DN(A_4,1,0xC04),
    DN(Cs5,1,0xC03),
    DN(E_5,2,0xC03),
    DN(G_4,2,0xC02),
    DN(A_4,2,0xC02),
    DN(Cs5,3,0xC01),
    DN(E_5,3,0xC01),
    DN(___,0,0xE00),
    DN(___,0,0x000),
    DN(___,0,0x000),
    DN(___,0,0x000),
    DN(___,0,0x000),
    DN(___,0,0x000),
    DN(___,0,0x000),
    DN(___,0,0x000),
};
static const unsigned char P6[] = {
    DN(Fs5,9,0x2FF),
    DN(___,0,0x2FF),
    DN(D_4,8,0x000),
    DN(___,0,0xE00),
    DN(D_4,7,0x000),
    DN(___,0,0xE00),
    DN(D_4,7,0x000),
    DN(___,0,0xE00),
    DN(Fs5,9,0x2FF),
    DN(___,0,0x2FF),
    DN(D_4,6,0x000),
    DN(___,0,0xE00),
    DN(D_4,5,0x000),
    DN(___,0,0xE00),
    DN(D_4,5,0x000),
    DN(___,0,0xE00),
    DN(Fs5,9,0x2FF),
    DN(___,0,0x2FF),
    DN(D_4,4,0x000),
    DN(___,0,0xE00),
    DN(D_4,4,0x000),
    DN(___,0,0xE00),
    DN(D_4,3,0x000),
    DN(___,0,0xE00),
    DN(Fs5,9,0x2FF),
    DN(___,0,0x2FF),
    DN(D_4,2,0x000),
    DN(___,0,0xE00),
    DN(D_6,1,0x000),
    DN(___,0,0x000),
    DN(D_5,1,0x000),
    DN(___,0,0xE00),
    DN(Fs5,9,0x2FF),
    DN(___,0,0x2FF),
    DN(D_4,8,0x000),
    DN(___,0,0xE00),
    DN(D_4,7,0x000),
    DN(___,0,0xE00),
    DN(D_4,7,0x000),
    DN(___,0,0xE00),
    DN(Fs5,9,0x2FF),
    DN(___,0,0x2FF),
    DN(D_4,6,0x000),
    DN(___,0,0xE00),
    DN(D_4,5,0x000),
    DN(___,0,0xE00),
    DN(D_4,5,0x000),
    DN(___,0,0xE00),
    DN(Fs5,9,0x2FF),
    DN(___,0,0x2FF),
    DN(D_4,4,0x000),
    DN(___,0,0xE00),
    DN(D_4,4,0x000),
    DN(___,0,0xE00),
    DN(D_4,3,0x000),
    DN(___,0,0xE00),
    DN(Fs5,9,0x2FF),
    DN(___,0,0x2FF),
    DN(D_4,2,0x000),
    DN(___,0,0xE00),
    DN(D_6,1,0x000),
    DN(___,0,0x000),
    DN(D_5,1,0x000),
    DN(___,0,0xE00),
};
static const unsigned char P7[] = {
    DN(Fs5,9,0x2FF),
    DN(___,0,0x2FF),
    DN(A_4,8,0x000),
    DN(___,0,0xE00),
    DN(A_4,7,0x000),
    DN(___,0,0xE00),
    DN(A_4,7,0x000),
    DN(___,0,0xE00),
    DN(Fs5,9,0x2FF),
    DN(___,0,0x2FF),
    DN(A_4,6,0x000),
    DN(___,0,0xE00),
    DN(A_4,5,0x000),
    DN(___,0,0xE00),
    DN(A_4,5,0x000),
    DN(___,0,0xE00),
    DN(Fs5,9,0x2FF),
    DN(___,0,0x2FF),
    DN(A_4,4,0x000),
    DN(___,0,0xE00),
    DN(A_4,4,0x000),
    DN(___,0,0xE00),
    DN(A_4,3,0x000),
    DN(___,0,0xE00),
    DN(Fs5,9,0x2FF),
    DN(___,0,0x2FF),
    DN(A_4,2,0x000),
    DN(___,0,0xE00),
    DN(A_6,1,0x000),
    DN(___,0,0x000),
    DN(A_5,1,0x000),
    DN(___,0,0xE00),
    DN(Fs5,9,0x2FF),
    DN(___,0,0x2FF),
    DN(A_3,8,0x000),
    DN(___,0,0xE00),
    DN(A_4,7,0x000),
    DN(___,0,0xE00),
    DN(A_3,7,0x000),
    DN(___,0,0xE00),
    DN(Fs5,9,0x2FF),
    DN(___,0,0x2FF),
    DN(A_3,6,0x000),
    DN(___,0,0xE00),
    DN(A_4,5,0x000),
    DN(___,0,0xE00),
    DN(A_3,5,0x000),
    DN(___,0,0xE00),
    DN(Fs5,9,0x2FF),
    DN(___,0,0x2FF),
    DN(A_3,4,0x000),
    DN(___,0,0xE00),
    DN(A_4,4,0x000),
    DN(___,0,0xE00),
    DN(A_3,3,0x000),
    DN(___,0,0xE00),
    DN(Fs5,9,0x2FF),
    DN(___,0,0x2FF),
    DN(A_3,2,0x000),
    DN(___,0,0xE00),
    DN(A_5,1,0x000),
    DN(___,0,0x000),
    DN(A_4,1,0x000),
    DN(___,0,0xE00),
};
static const unsigned char P8[] = {
    DN(F_4,1,0xC0C),
    DN(G_4,1,0xC0C),
    DN(As4,1,0xC0B),
    DN(D_5,2,0xC0B),
    DN(F_4,2,0xC0A),
    DN(G_4,2,0xC0A),
    DN(As4,3,0xC09),
    DN(D_5,3,0xC09),
    DN(F_4,3,0xC08),
    DN(G_4,4,0xC08),
    DN(As4,4,0xC07),
    DN(D_5,4,0xC07),
    DN(F_4,4,0xC06),
    DN(G_4,1,0xC06),
    DN(As4,1,0xC05),
    DN(D_5,1,0xC05),
    DN(F_4,1,0xC04),
    DN(G_4,1,0xC04),
    DN(As4,1,0xC03),
    DN(D_5,2,0xC03),
    DN(F_4,2,0xC02),
    DN(G_4,2,0xC02),
    DN(As4,3,0xC01),
    DN(D_5,3,0xC01),
    DN(F_4,1,0xC0C),
    DN(G_4,1,0xC0C),
    DN(As4,1,0xC0B),
    DN(D_5,2,0xC0B),
    DN(F_4,2,0xC0A),
    DN(G_4,2,0xC0A),
    DN(As4,3,0xC09),
    DN(D_5,3,0xC09),
    DN(Fs4,1,0xC0C),
    DN(As4,1,0xC0C),
    DN(Cs5,1,0xC0B),
    DN(F_5,1,0xC0B),
    DN(Fs4,2,0xC0A),
    DN(As4,2,0xC0A),
    DN(Cs5,3,0xC09),
    DN(F_5,3,0xC09),
    DN(Fs4,3,0xC08),
    DN(As4,4,0xC08),
    DN(Cs5,4,0xC07),
    DN(F_5,4,0xC07),
    DN(Fs4,4,0xC06),
    DN(As4,1,0xC06),
    DN(Cs5,1,0xC05),
    DN(F_5,1,0xC05),
    DN(Fs4,1,0xC0C),
    DN(As4,1,0xC0C),
    DN(Cs5,1,0xC0B),
    DN(F_5,1,0xC0B),
    DN(Fs4,2,0xC0A),
    DN(As4,2,0xC0A),
    DN(Cs5,3,0xC09),
    DN(F_5,3,0xC09),
    DN(Fs4,1,0xC0C),
    DN(As4,1,0xC0C),
    DN(Cs5,1,0xC0B),
    DN(G_5,1,0xC0B),
    DN(Fs4,2,0xC0A),
    DN(As4,2,0xC0A),
    DN(Cs5,3,0xC09),
    DN(G_5,3,0xC09),
};
static const unsigned char P9[] = {
    DN(F_4,1,0xC0C),
    DN(G_4,1,0xC0C),
    DN(As4,1,0xC0B),
    DN(D_5,2,0xC0B),
    DN(F_4,2,0xC0A),
    DN(G_4,2,0xC0A),
    DN(As4,3,0xC09),
    DN(D_5,3,0xC09),
    DN(F_4,3,0xC08),
    DN(G_4,4,0xC08),
    DN(As4,4,0xC07),
    DN(D_5,4,0xC07),
    DN(F_4,4,0xC06),
    DN(G_4,1,0xC06),
    DN(As4,1,0xC05),
    DN(D_5,1,0xC05),
    DN(F_4,1,0xC04),
    DN(G_4,1,0xC04),
    DN(As4,1,0xC03),
    DN(D_5,2,0xC03),
    DN(F_4,2,0xC02),
    DN(G_4,2,0xC02),
    DN(As4,3,0xC01),
    DN(D_5,3,0xC01),
    DN(F_4,1,0xC0C),
    DN(G_4,1,0xC0C),
    DN(As4,1,0xC0B),
    DN(D_5,2,0xC0B),
    DN(F_4,2,0xC0A),
    DN(G_4,2,0xC0A),
    DN(As4,3,0xC09),
    DN(D_5,3,0xC09),
    DN(Fs4,1,0xC0C),
    DN(As4,1,0xC0C),
    DN(Cs5,1,0xC0B),
    DN(F_5,1,0xC0B),
    DN(Fs4,2,0xC0A),
    DN(As4,2,0xC0A),
    DN(Cs5,3,0xC09),
    DN(F_5,3,0xC09),
    DN(Fs4,3,0xC08),
    DN(As4,4,0xC08),
    DN(Cs5,4,0xC07),
    DN(F_5,4,0xC07),
    DN(Fs4,4,0xC06),
    DN(As4,1,0xC06),
    DN(Cs5,1,0xC05),
    DN(F_5,1,0xC05),
    DN(Fs4,1,0xC0C),
    DN(As4,1,0xC0C),
    DN(Cs5,1,0xC0B),
    DN(F_5,1,0xC0B),
    DN(Fs4,2,0xC0A),
    DN(As4,2,0xC0A),
    DN(Cs5,3,0xC09),
    DN(F_5,3,0xC09),
    DN(As4,1,0xC0C),
    DN(Cs5,1,0xC0C),
    DN(E_5,1,0xC0B),
    DN(A_5,1,0xC0B),
    DN(As4,2,0xC0A),
    DN(Cs5,2,0xC0A),
    DN(E_5,3,0xC09),
    DN(A_5,3,0xC09),
};
static const unsigned char P10[] = {
    DN(Fs5,9,0x2FF),
    DN(___,0,0x2FF),
    DN(G_4,8,0x000),
    DN(___,0,0xE00),
    DN(G_4,7,0x000),
    DN(___,0,0xE00),
    DN(G_4,7,0x000),
    DN(___,0,0xE00),
    DN(Fs5,9,0x2FF),
    DN(___,0,0x2FF),
    DN(G_4,6,0x000),
    DN(___,0,0xE00),
    DN(G_4,5,0x000),
    DN(___,0,0xE00),
    DN(G_4,5,0x000),
    DN(___,0,0xE00),
    DN(Fs5,9,0x2FF),
    DN(___,0,0x2FF),
    DN(G_4,4,0x000),
    DN(___,0,0xE00),
    DN(G_4,4,0x000),
    DN(___,0,0xE00),
    DN(G_4,3,0x000),
    DN(___,0,0xE00),
    DN(Fs5,9,0x2FF),
    DN(___,0,0x2FF),
    DN(G_4,2,0x000),
    DN(___,0,0xE00),
    DN(G_6,1,0x000),
    DN(___,0,0x000),
    DN(G_5,1,0x000),
    DN(___,0,0xE00),
    DN(Fs5,9,0x2FF),
    DN(___,0,0x2FF),
    DN(Gs4,8,0x000),
    DN(___,0,0xE00),
    DN(Gs4,7,0x000),
    DN(___,0,0xE00),
    DN(Gs4,7,0x000),
    DN(___,0,0xE00),
    DN(Fs5,9,0x2FF),
    DN(___,0,0x2FF),
    DN(Gs4,6,0x000),
    DN(___,0,0xE00),
    DN(Gs4,5,0x000),
    DN(___,0,0xE00),
    DN(Gs4,5,0x000),
    DN(___,0,0xE00),
    DN(Fs5,9,0x2FF),
    DN(___,0,0x2FF),
    DN(Gs4,4,0x000),
    DN(___,0,0xE00),
    DN(Gs4,4,0x000),
    DN(___,0,0xE00),
    DN(Gs4,3,0x000),
    DN(___,0,0xE00),
    DN(Fs5,9,0x2FF),
    DN(___,0,0x2FF),
    DN(Gs4,2,0x000),
    DN(___,0,0xE00),
    DN(Gs6,1,0x000),
    DN(___,0,0x000),
    DN(Gs5,1,0x000),
    DN(___,0,0xE00),
};
static const unsigned char P11[] = {
    DN(A_4,1,0xC0C),
    DN(Cs5,1,0xC0C),
    DN(E_5,1,0xC0B),
    DN(G_5,2,0xC0B),
    DN(A_4,2,0xC0A),
    DN(Cs5,2,0xC0A),
    DN(E_5,3,0xC09),
    DN(G_5,3,0xC09),
    DN(A_4,3,0xC08),
    DN(Cs5,4,0xC08),
    DN(E_5,4,0xC07),
    DN(G_5,4,0xC07),
    DN(A_4,4,0xC06),
    DN(Cs5,1,0xC06),
    DN(E_5,1,0xC05),
    DN(G_5,1,0xC05),
    DN(A_4,1,0xC04),
    DN(Cs5,1,0xC04),
    DN(E_5,1,0xC03),
    DN(G_5,2,0xC03),
    DN(A_4,2,0xC02),
    DN(Cs5,2,0xC02),
    DN(E_5,3,0xC01),
    DN(G_5,3,0xC01),
    DN(A_4,1,0xC0C),
    DN(Cs5,1,0xC0C),
    DN(E_5,1,0xC0B),
    DN(G_5,2,0xC0B),
    DN(A_4,2,0xC0A),
    DN(Cs5,2,0xC0A),
    DN(E_5,3,0xC09),
    DN(G_5,3,0xC09),
    DN(As4,1,0xC0C),
    DN(C_5,1,0xC0C),
    DN(E_5,1,0xC0B),
    DN(G_5,1,0xC0B),
    DN(As4,2,0xC0A),
    DN(C_5,2,0xC0A),
    DN(E_5,3,0xC09),
    DN(G_5,3,0xC09),
    DN(As4,3,0xC08),
    DN(C_5,4,0xC08),
    DN(E_5,4,0xC07),
    DN(G_5,4,0xC07),
    DN(As4,4,0xC06),
    DN(C_5,1,0xC06),
    DN(E_5,1,0xC05),
    DN(G_5,1,0xC05),
    DN(As4,1,0xC04),
    DN(C_5,1,0xC04),
    DN(E_5,1,0xC03),
    DN(G_5,2,0xC03),
    DN(As4,2,0xC02),
    DN(C_5,2,0xC02),
    DN(E_5,3,0xC01),
    DN(G_5,3,0xC01),
    DN(___,0,0xE00),
    DN(___,0,0x000),
    DN(___,0,0x000),
    DN(___,0,0x000),
    DN(___,0,0x000),
    DN(___,0,0x000),
    DN(___,0,0x000),
    DN(___,0,0x000),
};
static const unsigned char P12[] = {
    DN(Fs5,9,0x2FF),
    DN(___,0,0x2FF),
    DN(A_4,8,0x000),
    DN(___,0,0xE00),
    DN(A_4,7,0x000),
    DN(___,0,0xE00),
    DN(A_4,7,0x000),
    DN(___,0,0xE00),
    DN(Fs5,9,0x2FF),
    DN(___,0,0x2FF),
    DN(A_4,6,0x000),
    DN(___,0,0xE00),
    DN(A_4,5,0x000),
    DN(___,0,0xE00),
    DN(A_4,5,0x000),
    DN(___,0,0xE00),
    DN(Fs5,9,0x2FF),
    DN(___,0,0x2FF),
    DN(A_4,4,0x000),
    DN(___,0,0xE00),
    DN(A_4,4,0x000),
    DN(___,0,0xE00),
    DN(A_4,3,0x000),
    DN(___,0,0xE00),
    DN(Fs5,9,0x2FF),
    DN(___,0,0x2FF),
    DN(A_4,2,0x000),
    DN(___,0,0xE00),
    DN(A_6,1,0x000),
    DN(___,0,0x000),
    DN(A_5,1,0x000),
    DN(___,0,0xE00),
    DN(Fs5,9,0x2FF),
    DN(___,0,0x2FF),
    DN(C_4,8,0x000),
    DN(___,0,0xE00),
    DN(C_5,7,0x000),
    DN(___,0,0xE00),
    DN(C_4,7,0x000),
    DN(___,0,0xE00),
    DN(Fs5,9,0x2FF),
    DN(___,0,0x2FF),
    DN(C_4,6,0x000),
    DN(___,0,0xE00),
    DN(C_5,5,0x000),
    DN(___,0,0xE00),
    DN(C_4,5,0x000),
    DN(___,0,0xE00),
    DN(Fs5,9,0x2FF),
    DN(___,0,0x2FF),
    DN(C_4,4,0x000),
    DN(___,0,0xE00),
    DN(C_5,4,0x000),
    DN(___,0,0xE00),
    DN(C_4,3,0x000),
    DN(___,0,0xE00),
    DN(Fs5,9,0x2FF),
    DN(___,0,0x2FF),
    DN(Fs5,9,0x2FF),
    DN(___,0,0x2FF),
    DN(Fs5,9,0x2FF),
    DN(___,0,0x2FF),
    DN(Fs5,9,0x2FF),
    DN(___,0,0x2FF),
};
static const unsigned char P13[] = {
    DN(F_4,1,0xC0C),
    DN(A_4,1,0xC0C),
    DN(C_5,1,0xC0B),
    DN(E_5,2,0xC0B),
    DN(F_4,2,0xC0A),
    DN(A_4,2,0xC0A),
    DN(C_5,3,0xC09),
    DN(E_5,3,0xC09),
    DN(F_4,3,0xC08),
    DN(A_4,4,0xC08),
    DN(C_5,4,0xC07),
    DN(E_5,4,0xC07),
    DN(F_4,4,0xC06),
    DN(A_4,1,0xC06),
    DN(C_5,1,0xC05),
    DN(E_5,1,0xC05),
    DN(F_4,1,0xC0C),
    DN(A_4,1,0xC0C),
    DN(C_5,1,0xC0B),
    DN(Ds5,2,0xC0B),
    DN(F_4,2,0xC0A),
    DN(A_4,2,0xC0A),
    DN(C_5,3,0xC09),
    DN(Ds5,3,0xC09),
    DN(F_4,3,0xC08),
    DN(A_4,4,0xC08),
    DN(C_5,4,0xC07),
    DN(Ds5,4,0xC07),
    DN(F_4,4,0xC06),
    DN(A_4,1,0xC06),
    DN(C_5,1,0xC05),
    DN(Ds5,1,0xC05),
    DN(F_4,1,0xC0C),
    DN(G_4,1,0xC0C),
    DN(As4,1,0xC0B),
    DN(D_5,2,0xC0B),
    DN(F_4,2,0xC0A),
    DN(G_4,2,0xC0A),
    DN(As4,3,0xC09),
    DN(D_5,3,0xC09),
    DN(F_4,3,0xC08),
    DN(G_4,4,0xC08),
    DN(As4,4,0xC07),
    DN(D_5,4,0xC07),
    DN(F_4,4,0xC06),
    DN(G_4,1,0xC06),
    DN(As4,1,0xC05),
    DN(D_5,1,0xC05),
    DN(G_4,1,0xC0C),
    DN(As4,1,0xC0C),
    DN(D_5,1,0xC0B),
    DN(E_5,2,0xC0B),
    DN(G_4,2,0xC0A),
    DN(As4,2,0xC0A),
    DN(D_5,3,0xC09),
    DN(E_5,3,0xC09),
    DN(G_4,3,0xC08),
    DN(As4,4,0xC08),
    DN(D_5,4,0xC07),
    DN(E_5,4,0xC07),
    DN(G_4,4,0xC06),
    DN(As4,1,0xC06),
    DN(D_5,1,0xC05),
    DN(E_5,1,0xC05),
};
static const unsigned char P14[] = {
    DN(G_5,5,0x000),
    DN(A_5,6,0x308),
    DN(___,0,0x308),
    DN(___,0,0x308),
    DN(___,0,0x000),
    DN(___,0,0x000),
    DN(___,0,0x000),
    DN(___,0,0x000),
    DN(G_5,5,0x000),
    DN(___,0,0x000),
    DN(___,0,0xE00),
    DN(___,0,0x000),
    DN(___,0,0x000),
    DN(___,0,0x000),
    DN(___,0,0x000),
    DN(___,0,0x000),
    DN(A_5,5,0x000),
    DN(___,0,0x000),
    DN(___,0,0x000),
    DN(___,0,0x000),
    DN(C_6,5,0x000),
    DN(___,0,0x000),
    DN(___,0,0xE00),
    DN(___,0,0x000),
    DN(___,0,0x000),
    DN(___,0,0x000),
    DN(___,0,0x000),
    DN(___,0,0x000),
    DN(Cs6,5,0x000),
    DN(D_6,6,0x308),
    DN(___,0,0x308),
    DN(___,0,0x308),
    DN(___,0,0x000),
    DN(___,0,0x000),
    DN(___,0,0x000),
    DN(___,0,0x000),
    DN(C_6,5,0x000),
    DN(___,0,0x000),
    DN(___,0,0xE00),
    DN(___,0,0x000),
    DN(___,0,0x000),
    DN(___,0,0x000),
    DN(___,0,0x000),
    DN(___,0,0x000),
    DN(___,0,0x000),
    DN(___,0,0x000),
    DN(___,0,0x000),
    DN(___,0,0x000),
    DN(Gs5,5,0x000),
    DN(___,0,0x000),
    DN(G_5,6,0x000),
    DN(___,0,0x000),
    DN(F_5,6,0x000),
    DN(___,0,0x000),
    DN(___,0,0xE00),
    DN(___,0,0x000),
    DN(G_5,5,0x000),
    DN(___,0,0x000),
    DN(___,0,0xE00),
    DN(___,0,0x000),
    DN(F_5,5,0x000),
    DN(___,0,0x000),
    DN(___,0,0x000),
    DN(___,0,0x000),
};
static const unsigned char P15[] = {
    DN(Fs5,9,0x2FF),
    DN(___,0,0x2FF),
    DN(F_4,8,0x000),
    DN(___,0,0xE00),
    DN(F_4,7,0x000),
    DN(___,0,0xE00),
    DN(F_4,7,0x000),
    DN(___,0,0xE00),
    DN(Fs5,9,0x2FF),
    DN(___,0,0x2FF),
    DN(F_4,6,0x000),
    DN(___,0,0xE00),
    DN(F_4,5,0x000),
    DN(___,0,0xE00),
    DN(F_4,5,0x000),
    DN(___,0,0xE00),
    DN(Fs5,9,0x2FF),
    DN(___,0,0x2FF),
    DN(F_4,4,0x000),
    DN(___,0,0xE00),
    DN(F_4,4,0x000),
    DN(___,0,0xE00),
    DN(F_4,3,0x000),
    DN(___,0,0xE00),
    DN(Fs5,9,0x2FF),
    DN(___,0,0x2FF),
    DN(F_4,2,0x000),
    DN(___,0,0xE00),
    DN(F_6,1,0x000),
    DN(___,0,0x000),
    DN(F_5,1,0x000),
    DN(___,0,0xE00),
    DN(Fs5,9,0x2FF),
    DN(___,0,0x2FF),
    DN(G_4,8,0x000),
    DN(___,0,0xE00),
    DN(G_4,7,0x000),
    DN(___,0,0xE00),
    DN(G_4,7,0x000),
    DN(___,0,0xE00),
    DN(Fs5,9,0x2FF),
    DN(___,0,0x2FF),
    DN(G_4,6,0x000),
    DN(___,0,0xE00),
    DN(G_4,5,0x000),
    DN(___,0,0xE00),
    DN(G_4,5,0x000),
    DN(___,0,0xE00),
    DN(Fs5,9,0x2FF),
    DN(___,0,0x2FF),
    DN(C_4,4,0x000),
    DN(___,0,0xE00),
    DN(C_4,4,0x000),
    DN(___,0,0xE00),
    DN(C_4,3,0x000),
    DN(___,0,0xE00),
    DN(Fs5,9,0x2FF),
    DN(___,0,0x2FF),
    DN(C_4,2,0x000),
    DN(___,0,0xE00),
    DN(C_6,1,0x000),
    DN(___,0,0x000),
    DN(C_5,1,0x000),
    DN(___,0,0xE00),
};
static const unsigned char P16[] = {
    DN(F_4,1,0xC0C),
    DN(A_4,1,0xC0C),
    DN(C_5,1,0xC0B),
    DN(E_5,2,0xC0B),
    DN(F_4,2,0xC0A),
    DN(A_4,2,0xC0A),
    DN(C_5,3,0xC09),
    DN(E_5,3,0xC09),
    DN(F_4,3,0xC08),
    DN(A_4,4,0xC08),
    DN(C_5,4,0xC07),
    DN(E_5,4,0xC07),
    DN(F_4,4,0xC06),
    DN(A_4,1,0xC06),
    DN(C_5,1,0xC05),
    DN(E_5,1,0xC05),
    DN(F_4,1,0xC0C),
    DN(A_4,1,0xC0C),
    DN(C_5,1,0xC0B),
    DN(Ds5,2,0xC0B),
    DN(F_4,2,0xC0A),
    DN(A_4,2,0xC0A),
    DN(C_5,3,0xC09),
    DN(Ds5,3,0xC09),
    DN(F_4,3,0xC08),
    DN(A_4,4,0xC08),
    DN(C_5,4,0xC07),
    DN(Ds5,4,0xC07),
    DN(F_4,4,0xC06),
    DN(A_4,1,0xC06),
    DN(C_5,1,0xC05),
    DN(Ds5,1,0xC05),
    DN(F_4,1,0xC0C),
    DN(G_4,1,0xC0C),
    DN(As4,1,0xC0B),
    DN(D_5,2,0xC0B),
    DN(F_4,2,0xC0A),
    DN(G_4,2,0xC0A),
    DN(As4,3,0xC09),
    DN(D_5,3,0xC09),
    DN(F_4,3,0xC08),
    DN(G_4,4,0xC08),
    DN(As4,4,0xC07),
    DN(D_5,4,0xC07),
    DN(F_4,4,0xC06),
    DN(G_4,1,0xC06),
    DN(As4,1,0xC05),
    DN(D_5,1,0xC05),
    DN(Ds4,1,0xC0C),
    DN(G_4,1,0xC0C),
    DN(As4,1,0xC0B),
    DN(D_5,2,0xC0B),
    DN(Ds4,2,0xC0A),
    DN(G_4,2,0xC0A),
    DN(As4,3,0xC09),
    DN(D_5,3,0xC09),
    DN(Ds4,3,0xC08),
    DN(G_4,4,0xC08),
    DN(As4,4,0xC07),
    DN(D_5,4,0xC07),
    DN(Ds4,4,0xC06),
    DN(G_4,1,0xC06),
    DN(As4,1,0xC05),
    DN(D_5,1,0xC05),
};
static const unsigned char P17[] = {
    DN(___,0,0x000),
    DN(___,0,0x000),
    DN(___,0,0x000),
    DN(___,0,0x000),
    DN(D_5,5,0x000),
    DN(___,0,0x000),
    DN(___,0,0xE00),
    DN(___,0,0x000),
    DN(___,0,0x000),
    DN(___,0,0x000),
    DN(___,0,0x000),
    DN(___,0,0x000),
    DN(C_5,5,0x000),
    DN(___,0,0x000),
    DN(___,0,0xE00),
    DN(___,0,0x000),
    DN(___,0,0x000),
    DN(___,0,0x000),
    DN(___,0,0x000),
    DN(___,0,0x000),
    DN(___,0,0x000),
    DN(___,0,0x000),
    DN(___,0,0x000),
    DN(___,0,0x000),
    DN(___,0,0x000),
    DN(___,0,0x000),
    DN(___,0,0x000),
    DN(___,0,0x000),
    DN(C_5,5,0x000),
    DN(___,0,0x000),
    DN(D_5,6,0x000),
    DN(___,0,0x000),
    DN(Ds5,5,0x000),
    DN(___,0,0x000),
    DN(___,0,0x000),
    DN(___,0,0x000),
    DN(F_5,6,0x000),
    DN(___,0,0x000),
    DN(___,0,0xE00),
    DN(___,0,0x000),
    DN(G_5,5,0x000),
    DN(___,0,0x000),
    DN(___,0,0xE00),
    DN(___,0,0x000),
    DN(A_5,5,0x000),
    DN(As5,6,0x308),
    DN(___,0,0x308),
    DN(___,0,0x308),
    DN(___,0,0x000),
    DN(___,0,0x000),
    DN(___,0,0x000),
    DN(___,0,0x000),
    DN(C_6,6,0x000),
    DN(___,0,0x000),
    DN(___,0,0xE00),
    DN(___,0,0x000),
    DN(As5,5,0x000),
    DN(___,0,0x000),
    DN(___,0,0x000),
    DN(___,0,0x000),
    DN(G_5,6,0x000),
    DN(___,0,0x000),
    DN(___,0,0xE00),
    DN(___,0,0x000),
};
static const unsigned char P18[] = {
    DN(Fs5,9,0x2FF),
    DN(___,0,0x2FF),
    DN(F_4,8,0x000),
    DN(___,0,0xE00),
    DN(F_4,7,0x000),
    DN(___,0,0xE00),
    DN(F_4,7,0x000),
    DN(___,0,0xE00),
    DN(Fs5,9,0x2FF),
    DN(___,0,0x2FF),
    DN(F_4,6,0x000),
    DN(___,0,0xE00),
    DN(F_4,5,0x000),
    DN(___,0,0xE00),
    DN(F_4,5,0x000),
    DN(___,0,0xE00),
    DN(Fs5,9,0x2FF),
    DN(___,0,0x2FF),
    DN(F_4,4,0x000),
    DN(___,0,0xE00),
    DN(F_4,4,0x000),
    DN(___,0,0xE00),
    DN(F_4,3,0x000),
    DN(___,0,0xE00),
    DN(Fs5,9,0x2FF),
    DN(___,0,0x2FF),
    DN(F_4,2,0x000),
    DN(___,0,0xE00),
    DN(F_6,1,0x000),
    DN(___,0,0x000),
    DN(F_5,1,0x000),
    DN(___,0,0xE00),
    DN(Fs5,9,0x2FF),
    DN(___,0,0x2FF),
    DN(As4,8,0x000),
    DN(___,0,0xE00),
    DN(As4,7,0x000),
    DN(___,0,0xE00),
    DN(As4,7,0x000),
    DN(___,0,0xE00),
    DN(Fs5,9,0x2FF),
    DN(___,0,0x2FF),
    DN(As4,6,0x000),
    DN(___,0,0xE00),
    DN(As4,5,0x000),
    DN(___,0,0xE00),
    DN(As4,5,0x000),
    DN(___,0,0xE00),
    DN(Fs5,9,0x2FF),
    DN(___,0,0x2FF),
    DN(C_5,4,0x000),
    DN(___,0,0xE00),
    DN(C_5,4,0x000),
    DN(___,0,0xE00),
    DN(C_5,3,0x000),
    DN(___,0,0xE00),
    DN(Fs5,9,0x2FF),
    DN(___,0,0x2FF),
    DN(C_5,2,0x000),
    DN(___,0,0xE00),
    DN(C_7,1,0x000),
    DN(___,0,0x000),
    DN(C_6,1,0x000),
    DN(___,0,0xE00),
};
static const unsigned char P19[] = {
    DN(F_4,1,0xC0C),
    DN(Gs4,1,0xC0C),
    DN(C_5,1,0xC0B),
    DN(Ds5,2,0xC0B),
    DN(F_4,2,0xC0A),
    DN(Gs4,2,0xC0A),
    DN(C_5,3,0xC09),
    DN(Ds5,3,0xC09),
    DN(F_4,3,0xC08),
    DN(Gs4,4,0xC08),
    DN(C_5,4,0xC07),
    DN(Ds5,4,0xC07),
    DN(F_4,4,0xC06),
    DN(Gs4,1,0xC06),
    DN(C_5,1,0xC05),
    DN(Ds5,1,0xC05),
    DN(F_4,1,0xC0C),
    DN(Gs4,1,0xC0C),
    DN(C_5,1,0xC0B),
    DN(Ds5,2,0xC0B),
    DN(F_4,2,0xC0A),
    DN(Gs4,2,0xC0A),
    DN(C_5,3,0xC09),
    DN(Ds5,3,0xC09),
    DN(F_4,3,0xC08),
    DN(Gs4,4,0xC08),
    DN(C_5,4,0xC07),
    DN(Ds5,4,0xC07),
    DN(F_4,4,0xC06),
    DN(Gs4,1,0xC06),
    DN(C_5,1,0xC05),
    DN(Ds5,1,0xC05),
    DN(Gs4,1,0xC0C),
    DN(C_5,1,0xC0C),
    DN(Ds5,1,0xC0B),
    DN(G_5,2,0xC0B),
    DN(Gs4,2,0xC0A),
    DN(C_5,2,0xC0A),
    DN(Ds5,3,0xC09),
    DN(G_5,3,0xC09),
    DN(Gs4,3,0xC08),
    DN(C_5,4,0xC08),
    DN(Ds5,4,0xC07),
    DN(G_5,4,0xC07),
    DN(Gs4,4,0xC06),
    DN(C_5,1,0xC06),
    DN(Ds5,1,0xC05),
    DN(G_5,1,0xC05),
    DN(A_4,1,0xC0C),
    DN(C_5,1,0xC0C),
    DN(Ds5,1,0xC0B),
    DN(G_5,2,0xC0B),
    DN(A_4,2,0xC0A),
    DN(C_5,2,0xC0A),
    DN(Ds5,3,0xC09),
    DN(G_5,3,0xC09),
    DN(A_4,3,0xC08),
    DN(C_5,4,0xC08),
    DN(Ds5,4,0xC07),
    DN(G_5,4,0xC07),
    DN(A_4,4,0xC06),
    DN(C_5,1,0xC06),
    DN(Ds5,1,0xC05),
    DN(G_5,1,0xC05),
};
static const unsigned char P20[] = {
    DN(Gs5,5,0x000),
    DN(___,0,0x000),
    DN(___,0,0x000),
    DN(___,0,0x000),
    DN(___,0,0x000),
    DN(___,0,0x000),
    DN(___,0,0x000),
    DN(___,0,0x000),
    DN(G_5,5,0x000),
    DN(___,0,0x000),
    DN(___,0,0xE00),
    DN(___,0,0x000),
    DN(___,0,0x000),
    DN(___,0,0x000),
    DN(___,0,0x000),
    DN(___,0,0x000),
    DN(Gs5,5,0x000),
    DN(___,0,0x000),
    DN(___,0,0x000),
    DN(___,0,0x000),
    DN(C_6,5,0x000),
    DN(___,0,0x000),
    DN(___,0,0xE00),
    DN(___,0,0x000),
    DN(___,0,0x000),
    DN(___,0,0x000),
    DN(___,0,0x000),
    DN(___,0,0x000),
    DN(D_6,5,0x000),
    DN(Ds6,6,0x308),
    DN(___,0,0x308),
    DN(___,0,0x308),
    DN(___,0,0x000),
    DN(___,0,0x000),
    DN(___,0,0x000),
    DN(___,0,0x000),
    DN(D_6,5,0x000),
    DN(___,0,0x000),
    DN(___,0,0xE00),
    DN(___,0,0x000),
    DN(C_6,5,0x000),
    DN(___,0,0x000),
    DN(D_6,6,0x000),
    DN(___,0,0x000),
    DN(___,0,0xE00),
    DN(___,0,0x000),
    DN(Ds6,5,0x000),
    DN(___,0,0x000),
    DN(___,0,0x000),
    DN(___,0,0x000),
    DN(___,0,0x000),
    DN(___,0,0x000),
    DN(F_6,6,0x000),
    DN(___,0,0x000),
    DN(___,0,0xE00),
    DN(___,0,0x000),
    DN(G_6,5,0x000),
    DN(___,0,0x000),
    DN(Ds6,6,0x000),
    DN(___,0,0x000),
    DN(___,0,0xE00),
    DN(___,0,0x000),
    DN(F_6,5,0x000),
    DN(___,0,0x000),
};
static const unsigned char P21[] = {
    DN(Fs5,9,0x2FF),
    DN(___,0,0x2FF),
    DN(F_4,8,0x000),
    DN(___,0,0xE00),
    DN(F_4,7,0x000),
    DN(___,0,0xE00),
    DN(F_4,7,0x000),
    DN(___,0,0xE00),
    DN(Fs5,9,0x2FF),
    DN(___,0,0x2FF),
    DN(F_4,6,0x000),
    DN(___,0,0xE00),
    DN(F_4,5,0x000),
    DN(___,0,0xE00),
    DN(F_4,5,0x000),
    DN(___,0,0xE00),
    DN(Fs5,9,0x2FF),
    DN(___,0,0x2FF),
    DN(F_4,4,0x000),
    DN(___,0,0xE00),
    DN(F_4,4,0x000),
    DN(___,0,0xE00),
    DN(F_4,3,0x000),
    DN(___,0,0xE00),
    DN(Fs5,9,0x2FF),
    DN(___,0,0x2FF),
    DN(F_4,2,0x000),
    DN(___,0,0xE00),
    DN(F_6,1,0x000),
    DN(___,0,0x000),
    DN(F_5,1,0x000),
    DN(___,0,0xE00),
    DN(Fs5,9,0x2FF),
    DN(___,0,0x2FF),
    DN(Gs4,8,0x000),
    DN(___,0,0xE00),
    DN(Gs4,7,0x000),
    DN(___,0,0xE00),
    DN(Gs4,7,0x000),
    DN(___,0,0xE00),
    DN(Fs5,9,0x2FF),
    DN(___,0,0x2FF),
    DN(Gs4,6,0x000),
    DN(___,0,0xE00),
    DN(Gs4,5,0x000),
    DN(___,0,0xE00),
    DN(Gs4,5,0x000),
    DN(___,0,0xE00),
    DN(Fs5,9,0x2FF),
    DN(___,0,0x2FF),
    DN(A_4,4,0x000),
    DN(___,0,0xE00),
    DN(A_4,4,0x000),
    DN(___,0,0xE00),
    DN(A_4,3,0x000),
    DN(___,0,0xE00),
    DN(Fs5,9,0x2FF),
    DN(___,0,0x2FF),
    DN(A_4,2,0x000),
    DN(___,0,0xE00),
    DN(A_6,1,0x000),
    DN(___,0,0x000),
    DN(A_5,1,0x000),
    DN(___,0,0xE00),
};
static const unsigned char P22[] = {
    DN(Gs4,1,0xC0C),
    DN(C_5,1,0xC0C),
    DN(D_5,1,0xC0B),
    DN(F_5,2,0xC0B),
    DN(Gs4,2,0xC0A),
    DN(C_5,2,0xC0A),
    DN(D_5,3,0xC09),
    DN(F_5,3,0xC09),
    DN(Gs4,3,0xC08),
    DN(C_5,4,0xC08),
    DN(D_5,4,0xC07),
    DN(F_5,4,0xC07),
    DN(Gs4,4,0xC06),
    DN(C_5,1,0xC06),
    DN(D_5,1,0xC05),
    DN(F_5,1,0xC05),
    DN(Gs4,1,0xC0C),
    DN(C_5,1,0xC0C),
    DN(Cs5,1,0xC0B),
    DN(F_5,2,0xC0B),
    DN(Gs4,2,0xC0A),
    DN(C_5,2,0xC0A),
    DN(Cs5,3,0xC09),
    DN(F_5,3,0xC09),
    DN(Gs4,3,0xC08),
    DN(C_5,4,0xC08),
    DN(Cs5,4,0xC07),
    DN(F_5,4,0xC07),
    DN(Gs4,4,0xC06),
    DN(C_5,1,0xC06),
    DN(Cs5,1,0xC05),
    DN(F_5,1,0xC05),
    DN(G_4,1,0xC0C),
    DN(As4,1,0xC0C),
    DN(D_5,1,0xC0B),
    DN(F_5,2,0xC0B),
    DN(G_4,2,0xC0A),
    DN(As4,2,0xC0A),
    DN(D_5,3,0xC09),
    DN(F_5,3,0xC09),
    DN(G_4,3,0xC08),
    DN(As4,4,0xC08),
    DN(D_5,4,0xC07),
    DN(F_5,4,0xC07),
    DN(G_4,4,0xC06),
    DN(As4,1,0xC06),
    DN(D_5,1,0xC05),
    DN(F_5,1,0xC05),
    DN(G_4,1,0xC0C),
    DN(As4,1,0xC0C),
    DN(Cs5,1,0xC0B),
    DN(G_5,2,0xC0B),
    DN(G_4,2,0xC0A),
    DN(As4,2,0xC0A),
    DN(Cs5,3,0xC09),
    DN(G_5,3,0xC09),
    DN(G_4,3,0xC08),
    DN(As4,4,0xC08),
    DN(Cs5,4,0xC07),
    DN(G_5,4,0xC07),
    DN(G_4,4,0xC06),
    DN(As4,1,0xC06),
    DN(Cs5,1,0xC05),
    DN(G_5,1,0xC05),
};
static const unsigned char P23[] = {
    DN(___,0,0x000),
    DN(___,0,0x000),
    DN(___,0,0x000),
    DN(___,0,0x000),
    DN(___,0,0x220),
    DN(___,0,0x220),
    DN(___,0,0xE00),
    DN(___,0,0x000),
    DN(___,0,0x000),
    DN(___,0,0x000),
    DN(___,0,0x000),
    DN(___,0,0x000),
    DN(___,0,0x000),
    DN(___,0,0x000),
    DN(___,0,0x000),
    DN(___,0,0x000),
    DN(___,0,0x000),
    DN(___,0,0x000),
    DN(___,0,0x000),
    DN(___,0,0x000),
    DN(___,0,0x000),
    DN(___,0,0x000),
    DN(___,0,0x000),
    DN(___,0,0x000),
    DN(___,0,0x000),
    DN(___,0,0x000),
    DN(___,0,0x000),
    DN(___,0,0x000),
    DN(Cs6,5,0x000),
    DN(Ds6,6,0x308),
    DN(___,0,0x308),
    DN(___,0,0x308),
    DN(___,0,0x000),
    DN(___,0,0x000),
    DN(___,0,0x000),
    DN(___,0,0x000),
    DN(Cs6,5,0x000),
    DN(___,0,0x000),
    DN(___,0,0xE00),
    DN(___,0,0x000),
    DN(___,0,0x000),
    DN(___,0,0x000),
    DN(___,0,0x000),
    DN(___,0,0x000),
    DN(As5,5,0x000),
    DN(C_6,6,0x308),
    DN(___,0,0x308),
    DN(___,0,0x308),
    DN(___,0,0x000),
    DN(___,0,0x000),
    DN(___,0,0x000),
    DN(___,0,0x000),
    DN(___,0,0x000),
    DN(___,0,0x000),
    DN(Cs6,6,0x000),
    DN(C_6,6,0x000),
    DN(As5,5,0x000),
    DN(___,0,0xF03),
    DN(___,0,0x000),
    DN(___,0,0xF03),
    DN(G_5,5,0x000),
    DN(___,0,0x000),
    DN(___,0,0xE00),
    DN(___,0,0x000),
};
static const unsigned char P24[] = {
    DN(Fs5,9,0x2FF),
    DN(___,0,0x2FF),
    DN(As4,7,0x000),
    DN(___,0,0xE00),
    DN(As4,7,0x000),
    DN(___,0,0xE00),
    DN(As4,7,0x000),
    DN(___,0,0xE00),
    DN(Fs5,9,0x2FF),
    DN(___,0,0x2FF),
    DN(As4,6,0x000),
    DN(___,0,0xE00),
    DN(As4,5,0x000),
    DN(___,0,0xE00),
    DN(As4,5,0x000),
    DN(___,0,0xE00),
    DN(Fs5,9,0x2FF),
    DN(___,0,0x2FF),
    DN(As4,4,0x000),
    DN(___,0,0xE00),
    DN(As4,4,0x000),
    DN(___,0,0xE00),
    DN(As4,3,0x000),
    DN(___,0,0xE00),
    DN(Fs5,9,0x2FF),
    DN(___,0,0x2FF),
    DN(As4,2,0x000),
    DN(___,0,0xE00),
    DN(As6,1,0x000),
    DN(___,0,0x000),
    DN(As5,1,0x000),
    DN(___,0,0xE00),
    DN(Fs5,9,0x2FF),
    DN(___,0,0x2FF),
    DN(Cs4,8,0x000),
    DN(___,0,0xE00),
    DN(Cs5,7,0x000),
    DN(___,0,0xE00),
    DN(Cs4,7,0x000),
    DN(___,0,0xE00),
    DN(Fs5,9,0x2FF),
    DN(___,0,0x2FF),
    DN(Cs4,6,0x000),
    DN(___,0,0xE00),
    DN(Cs5,5,0x000),
    DN(___,0,0xE00),
    DN(Cs4,5,0x000),
    DN(___,0,0xE00),
    DN(Fs5,9,0x2FF),
    DN(___,0,0x2FF),
    DN(Ds4,4,0x000),
    DN(___,0,0xE00),
    DN(Ds5,4,0x000),
    DN(___,0,0xE00),
    DN(Ds4,3,0x000),
    DN(___,0,0xE00),
    DN(Fs5,9,0x2FF),
    DN(___,0,0x2FF),
    DN(E_4,2,0x000),
    DN(___,0,0xE00),
    DN(E_6,1,0x000),
    DN(___,0,0x000),
    DN(E_5,1,0x000),
    DN(___,0,0xE00),
};
static const unsigned char P25[] = {
    DN(Fs7,1,0xF04),
    DN(___,0,0xF03),
    DN(___,0,0xF04),
    DN(___,0,0xF03),
    DN(Fs7,2,0xF04),
    DN(___,0,0xF03),
    DN(___,0,0xF04),
    DN(___,0,0xF03),
    DN(Fs7,1,0xF04),
    DN(___,0,0xF03),
    DN(___,0,0xF04),
    DN(___,0,0xF03),
    DN(Fs7,2,0xF04),
    DN(___,0,0xF03),
    DN(___,0,0xF04),
    DN(___,0,0xF03),
    DN(Fs7,1,0xF04),
    DN(___,0,0xF03),
    DN(___,0,0xF04),
    DN(___,0,0xF03),
    DN(Fs7,2,0xF04),
    DN(___,0,0xF03),
    DN(___,0,0xF04),
    DN(___,0,0xF03),
    DN(Fs7,1,0xF04),
    DN(___,0,0xF03),
    DN(Fs7,1,0xF04),
    DN(___,0,0xF03),
    DN(Fs7,2,0xF04),
    DN(___,0,0xF03),
    DN(___,0,0xF04),
    DN(___,0,0xF03),
    DN(D_7,3,0xF04),
    DN(___,0,0xF03),
    DN(___,0,0xF04),
    DN(___,0,0xF03),
    DN(Fs7,2,0xF04),
    DN(___,0,0xF03),
    DN(___,0,0xF04),
    DN(___,0,0xF03),
    DN(D_7,3,0xF04),
    DN(___,0,0xF03),
    DN(___,0,0xF04),
    DN(___,0,0xF03),
    DN(Fs7,2,0xF04),
    DN(___,0,0xF03),
    DN(___,0,0xF04),
    DN(___,0,0xF03),
    DN(D_7,3,0xF04),
    DN(___,0,0xF03),
    DN(___,0,0xF04),
    DN(___,0,0xF03),
    DN(C_7,3,0xF04),
    DN(___,0,0xF03),
    DN(___,0,0xF04),
    DN(___,0,0xF03),
    DN(D_7,3,0xF04),
    DN(___,0,0xE00),
    DN(D_7,3,0xF04),
    DN(___,0,0xE00),
    DN(C_7,3,0xF04),
    DN(___,0,0xF03),
    DN(___,0,0xF04),
    DN(___,0,0xF03),
};
static const unsigned char P26[] = {
    DN(Fs5,9,0x2FF),
    DN(___,0,0x2FF),
    DN(As4,7,0x000),
    DN(___,0,0xE00),
    DN(As4,7,0x000),
    DN(___,0,0xE00),
    DN(As4,7,0x000),
    DN(___,0,0xE00),
    DN(Fs5,9,0x2FF),
    DN(___,0,0x2FF),
    DN(As4,6,0x000),
    DN(___,0,0xE00),
    DN(As4,5,0x000),
    DN(___,0,0xE00),
    DN(As4,5,0x000),
    DN(___,0,0xE00),
    DN(Fs5,9,0x2FF),
    DN(___,0,0x2FF),
    DN(As4,4,0x000),
    DN(___,0,0xE00),
    DN(As4,4,0x000),
    DN(___,0,0xE00),
    DN(As4,3,0x000),
    DN(___,0,0xE00),
    DN(Fs5,9,0x2FF),
    DN(___,0,0x2FF),
    DN(As4,2,0x000),
    DN(___,0,0xE00),
    DN(As6,1,0x000),
    DN(___,0,0x000),
    DN(As5,1,0x000),
    DN(___,0,0xE00),
    DN(Fs5,9,0x2FF),
    DN(___,0,0x2FF),
    DN(C_4,8,0x000),
    DN(___,0,0xE00),
    DN(C_5,7,0x000),
    DN(___,0,0xE00),
    DN(C_4,7,0x000),
    DN(___,0,0xE00),
    DN(Fs5,9,0x2FF),
    DN(___,0,0x2FF),
    DN(C_4,6,0x000),
    DN(___,0,0xE00),
    DN(C_5,5,0x000),
    DN(___,0,0xE00),
    DN(C_4,5,0x000),
    DN(___,0,0xE00),
    DN(Fs5,9,0x2FF),
    DN(___,0,0x2FF),
    DN(Cs4,4,0x000),
    DN(___,0,0xE00),
    DN(Cs5,4,0x000),
    DN(___,0,0xE00),
    DN(Cs4,3,0x000),
    DN(___,0,0xE00),
    DN(Fs5,9,0x2FF),
    DN(___,0,0x2FF),
    DN(Cs4,2,0x000),
    DN(___,0,0xE00),
    DN(Cs6,1,0x000),
    DN(___,0,0x000),
    DN(Cs5,1,0x000),
    DN(___,0,0xE00),
};
static const unsigned char P27[] = {
    DN(A_5,5,0x000),
    DN(___,0,0x000),
    DN(___,0,0x000),
    DN(___,0,0x000),
    DN(___,0,0x000),
    DN(___,0,0x000),
    DN(___,0,0x000),
    DN(___,0,0x000),
    DN(A_6,6,0x308),
    DN(___,0,0x308),
    DN(___,0,0x308),
    DN(___,0,0x308),
    DN(___,0,0x308),
    DN(___,0,0x308),
    DN(___,0,0x308),
    DN(___,0,0x308),
    DN(___,0,0x308),
    DN(___,0,0x000),
    DN(___,0,0x000),
    DN(___,0,0x000),
    DN(___,0,0xA01),
    DN(___,0,0x000),
    DN(___,0,0xA01),
    DN(___,0,0x000),
    DN(___,0,0xA01),
    DN(___,0,0x000),
    DN(___,0,0xA01),
    DN(___,0,0x000),
    DN(___,0,0xA01),
    DN(___,0,0x000),
    DN(___,0,0xA01),
    DN(___,0,0x000),
    DN(___,0,0xA01),
    DN(___,0,0x000),
    DN(___,0,0xA01),
    DN(___,0,0x000),
    DN(___,0,0xA01),
    DN(___,0,0x000),
    DN(___,0,0xA01),
    DN(___,0,0x000),
    DN(___,0,0xA01),
    DN(___,0,0x000),
    DN(___,0,0xA01),
    DN(___,0,0x000),
    DN(___,0,0xA01),
    DN(___,0,0x000),
    DN(___,0,0xA01),
    DN(___,0,0x000),
    DN(___,0,0xA01),
    DN(___,0,0x000),
    DN(___,0,0xA01),
    DN(___,0,0x000),
    DN(___,0,0x000),
    DN(___,0,0x000),
    DN(___,0,0x000),
    DN(___,0,0x000),
    DN(___,0,0x000),
    DN(___,0,0x000),
    DN(___,0,0x000),
    DN(___,0,0x000),
    DN(___,0,0x000),
    DN(___,0,0x000),
    DN(___,0,0x000),
    DN(___,0,0x000),
};
static const unsigned char P28[] = {
    DN(Fs7,1,0xF04),
    DN(___,0,0xF03),
    DN(___,0,0xF04),
    DN(___,0,0xF03),
    DN(Fs7,2,0xF04),
    DN(___,0,0xF03),
    DN(___,0,0xF04),
    DN(___,0,0xF03),
    DN(D_7,3,0xF04),
    DN(___,0,0xF03),
    DN(___,0,0xF04),
    DN(___,0,0xF03),
    DN(Fs7,2,0xF04),
    DN(___,0,0xF03),
    DN(___,0,0xF04),
    DN(___,0,0xF03),
    DN(Fs7,1,0xF04),
    DN(___,0,0xF03),
    DN(___,0,0xF04),
    DN(___,0,0xF03),
    DN(Fs7,2,0xF04),
    DN(___,0,0xF03),
    DN(___,0,0xF04),
    DN(___,0,0xF03),
    DN(D_7,3,0xF04),
    DN(___,0,0xF03),
    DN(Fs7,1,0xF04),
    DN(___,0,0xF03),
    DN(Fs7,2,0xF04),
    DN(___,0,0xF03),
    DN(___,0,0xF04),
    DN(___,0,0xF03),
    DN(Fs7,1,0xF04),
    DN(___,0,0xF03),
    DN(___,0,0xF04),
    DN(___,0,0xF03),
    DN(Fs7,2,0xF04),
    DN(___,0,0xF03),
    DN(___,0,0xF04),
    DN(___,0,0xF03),
    DN(D_7,3,0xF04),
    DN(___,0,0xF03),
    DN(___,0,0xF04),
    DN(___,0,0xF03),
    DN(Fs7,2,0xF04),
    DN(___,0,0xF03),
    DN(___,0,0xF04),
    DN(___,0,0xF03),
    DN(Fs7,1,0xF04),
    DN(___,0,0xF03),
    DN(___,0,0xF04),
    DN(___,0,0xF03),
    DN(Fs7,2,0xF04),
    DN(___,0,0xF03),
    DN(___,0,0xF04),
    DN(___,0,0xF03),
    DN(D_7,3,0xF04),
    DN(___,0,0xF03),
    DN(Fs7,1,0xF04),
    DN(___,0,0xF03),
    DN(Fs7,2,0xF04),
    DN(___,0,0xF03),
    DN(___,0,0xF04),
    DN(___,0,0xF03),
};
static const unsigned char P29[] = {
    DN(G_5,7,0x000),
    DN(___,0,0x000),
    DN(A_5,7,0x000),
    DN(___,0,0x000),
    DN(___,0,0x000),
    DN(___,0,0x000),
    DN(C_6,7,0x000),
    DN(___,0,0x000),
    DN(___,0,0x000),
    DN(___,0,0x000),
    DN(G_5,7,0x000),
    DN(___,0,0x000),
    DN(A_5,7,0x000),
    DN(___,0,0x000),
    DN(___,0,0x000),
    DN(___,0,0x000),
    DN(C_6,7,0x000),
    DN(___,0,0x000),
    DN(G_5,7,0x000),
    DN(___,0,0x000),
    DN(___,0,0x000),
    DN(___,0,0x000),
    DN(A_5,7,0x000),
    DN(___,0,0x000),
    DN(___,0,0x000),
    DN(___,0,0x000),
    DN(C_6,7,0x000),
    DN(___,0,0x000),
    DN(G_5,7,0x000),
    DN(___,0,0x000),
    DN(___,0,0x000),
    DN(___,0,0x000),
    DN(A_5,7,0x000),
    DN(___,0,0x000),
    DN(C_6,7,0x000),
    DN(___,0,0x000),
    DN(___,0,0x000),
    DN(___,0,0x000),
    DN(G_5,7,0x000),
    DN(___,0,0x000),
    DN(___,0,0x000),
    DN(___,0,0x000),
    DN(A_5,7,0x000),
    DN(___,0,0x000),
    DN(C_6,7,0x000),
    DN(___,0,0x000),
    DN(___,0,0x000),
    DN(___,0,0x000),
    DN(G_5,7,0x000),
    DN(___,0,0x000),
    DN(A_5,7,0x000),
    DN(___,0,0x000),
    DN(___,0,0x000),
    DN(___,0,0x000),
    DN(C_6,7,0x000),
    DN(___,0,0x000),
    DN(___,0,0x000),
    DN(___,0,0x000),
    DN(G_5,7,0x000),
    DN(___,0,0x000),
    DN(A_5,7,0x000),
    DN(___,0,0x000),
    DN(___,0,0x000),
    DN(___,0,0x000),
};
static const unsigned char P30[] = {
    DN(D_6,7,0x000),
    DN(___,0,0x000),
    DN(G_5,7,0x000),
    DN(___,0,0x000),
    DN(___,0,0x000),
    DN(___,0,0x000),
    DN(A_5,7,0x000),
    DN(___,0,0x000),
    DN(___,0,0x000),
    DN(___,0,0x000),
    DN(D_6,7,0x000),
    DN(___,0,0x000),
    DN(G_5,7,0x000),
    DN(___,0,0x000),
    DN(___,0,0x000),
    DN(___,0,0x000),
    DN(A_5,7,0x000),
    DN(___,0,0x000),
    DN(D_6,7,0x000),
    DN(___,0,0x000),
    DN(___,0,0x000),
    DN(___,0,0x000),
    DN(G_5,7,0x000),
    DN(___,0,0x000),
    DN(___,0,0x000),
    DN(___,0,0x000),
    DN(A_5,7,0x000),
    DN(___,0,0x000),
    DN(D_6,7,0x000),
    DN(___,0,0x000),
    DN(___,0,0x000),
    DN(___,0,0x000),
    DN(G_5,7,0x000),
    DN(___,0,0x000),
    DN(A_5,7,0x000),
    DN(___,0,0x000),
    DN(___,0,0x000),
    DN(___,0,0x000),
    DN(D_6,7,0x000),
    DN(___,0,0x000),
    DN(___,0,0x000),
    DN(___,0,0x000),
    DN(G_5,7,0x000),
    DN(___,0,0x000),
    DN(A_5,7,0x000),
    DN(___,0,0x000),
    DN(___,0,0x000),
    DN(___,0,0x000),
    DN(D_6,7,0x000),
    DN(___,0,0x000),
    DN(G_5,7,0x000),
    DN(___,0,0x000),
    DN(___,0,0x000),
    DN(___,0,0x000),
    DN(A_5,7,0x000),
    DN(___,0,0x000),
    DN(___,0,0x000),
    DN(___,0,0x000),
    DN(D_6,7,0x000),
    DN(___,0,0x000),
    DN(G_5,7,0x000),
    DN(___,0,0x000),
    DN(___,0,0x000),
    DN(___,0,0x000),
};
static const unsigned char P31[] = {
    DN(A_5,7,0x000),
    DN(___,0,0x000),
    DN(D_6,7,0x000),
    DN(___,0,0x000),
    DN(___,0,0x000),
    DN(___,0,0x000),
    DN(G_5,7,0x000),
    DN(___,0,0x000),
    DN(___,0,0x000),
    DN(___,0,0x000),
    DN(A_5,7,0x000),
    DN(___,0,0x000),
    DN(D_6,7,0x000),
    DN(___,0,0x000),
    DN(___,0,0x000),
    DN(___,0,0x000),
    DN(G_5,7,0x000),
    DN(___,0,0x000),
    DN(A_5,7,0x000),
    DN(___,0,0x000),
    DN(___,0,0x000),
    DN(___,0,0x000),
    DN(D_6,7,0x000),
    DN(___,0,0x000),
    DN(___,0,0x000),
    DN(___,0,0x000),
    DN(G_5,7,0x000),
    DN(___,0,0x000),
    DN(A_5,7,0x000),
    DN(___,0,0x000),
    DN(___,0,0x000),
    DN(___,0,0x000),
    DN(D_6,7,0x000),
    DN(___,0,0x000),
    DN(G_5,7,0x000),
    DN(___,0,0x000),
    DN(___,0,0x000),
    DN(___,0,0x000),
    DN(A_5,7,0x000),
    DN(___,0,0x000),
    DN(___,0,0x000),
    DN(___,0,0x000),
    DN(D_6,7,0x000),
    DN(___,0,0x000),
    DN(G_5,7,0x000),
    DN(___,0,0x000),
    DN(___,0,0x000),
    DN(___,0,0x000),
    DN(A_5,7,0x000),
    DN(___,0,0x000),
    DN(D_6,7,0x000),
    DN(___,0,0x000),
    DN(___,0,0x000),
    DN(___,0,0x000),
    DN(G_5,7,0x000),
    DN(___,0,0x000),
    DN(___,0,0x000),
    DN(___,0,0x000),
    DN(A_5,7,0x000),
    DN(___,0,0x000),
    DN(D_6,7,0x000),
    DN(___,0,0xF03),
    DN(___,0,0x000),
    DN(___,0,0xF03),
};
static const unsigned char P32[] = {
    DN(Fs7,1,0xF04),
    DN(___,0,0xF03),
    DN(___,0,0xF04),
    DN(___,0,0xF03),
    DN(Fs7,2,0xF04),
    DN(___,0,0xF03),
    DN(___,0,0xF04),
    DN(___,0,0xF03),
    DN(D_7,3,0xF04),
    DN(___,0,0xF03),
    DN(___,0,0xF04),
    DN(___,0,0xF03),
    DN(Fs7,2,0xF04),
    DN(___,0,0xF03),
    DN(___,0,0xF04),
    DN(___,0,0xF03),
    DN(Fs7,1,0xF04),
    DN(___,0,0xF03),
    DN(___,0,0xF04),
    DN(___,0,0xF03),
    DN(Fs7,2,0xF04),
    DN(___,0,0xF03),
    DN(___,0,0xF04),
    DN(___,0,0xF03),
    DN(D_7,3,0xF04),
    DN(___,0,0xF03),
    DN(Fs7,1,0xF04),
    DN(___,0,0xF03),
    DN(Fs7,2,0xF04),
    DN(___,0,0xF03),
    DN(___,0,0xF04),
    DN(___,0,0xF03),
    DN(Fs7,1,0xF04),
    DN(___,0,0xF03),
    DN(___,0,0xF04),
    DN(___,0,0xF03),
    DN(Fs7,2,0xF04),
    DN(___,0,0xF03),
    DN(___,0,0xF04),
    DN(___,0,0xF03),
    DN(D_7,3,0xF04),
    DN(___,0,0xF03),
    DN(___,0,0xF04),
    DN(___,0,0xF03),
    DN(Fs7,2,0xF04),
    DN(___,0,0xF03),
    DN(___,0,0xF04),
    DN(___,0,0xF03),
    DN(Fs7,1,0xF04),
    DN(___,0,0xF03),
    DN(___,0,0xF04),
    DN(___,0,0xF03),
    DN(Fs7,2,0xF04),
    DN(___,0,0xF03),
    DN(___,0,0xF04),
    DN(___,0,0xF03),
    DN(D_7,3,0xF04),
    DN(___,0,0xF03),
    DN(Fs7,1,0xF04),
    DN(___,0,0xF03),
    DN(Fs7,2,0xF04),
    DN(___,0,0xE00),
    DN(Fs7,2,0xF04),
    DN(___,0,0xE00),
};
static const unsigned char P33[] = {
    DN(A_6,4,0xF04),
    DN(___,0,0xF03),
    DN(___,0,0xF04),
    DN(___,0,0xF03),
    DN(___,0,0xF04),
    DN(___,0,0xF03),
    DN(___,0,0xF04),
    DN(___,0,0xF03),
    DN(___,0,0xF04),
    DN(___,0,0xF03),
    DN(___,0,0xF04),
    DN(___,0,0xF03),
    DN(___,0,0xF04),
    DN(___,0,0xF03),
    DN(___,0,0xF04),
    DN(___,0,0xF03),
    DN(___,0,0xF04),
    DN(___,0,0xF03),
    DN(___,0,0xF04),
    DN(___,0,0xF03),
    DN(___,0,0xF04),
    DN(___,0,0xF03),
    DN(___,0,0xF04),
    DN(___,0,0xF03),
    DN(___,0,0xF04),
    DN(___,0,0xF03),
    DN(___,0,0xF04),
    DN(___,0,0xF03),
    DN(___,0,0xF04),
    DN(___,0,0xF03),
    DN(___,0,0xF04),
    DN(___,0,0xF03),
    DN(___,0,0xF04),
    DN(___,0,0xF03),
    DN(___,0,0xF04),
    DN(___,0,0xF03),
    DN(___,0,0xF04),
    DN(___,0,0xF03),
    DN(___,0,0xF04),
    DN(___,0,0xF03),
    DN(___,0,0xF04),
    DN(___,0,0xF03),
    DN(___,0,0xF04),
    DN(___,0,0xF03),
    DN(___,0,0xF04),
    DN(___,0,0xF03),
    DN(___,0,0xF04),
    DN(___,0,0xF03),
    DN(E_7,5,0xF04),
    DN(___,0,0xF03),
    DN(Gs7,5,0xF04),
    DN(___,0,0xF03),
    DN(___,0,0xF04),
    DN(___,0,0xF03),
    DN(E_7,5,0xF04),
    DN(___,0,0xF03),
    DN(Gs7,5,0xF04),
    DN(___,0,0xF03),
    DN(___,0,0xF04),
    DN(___,0,0xF03),
    DN(E_7,5,0xF04),
    DN(___,0,0xF03),
    DN(Gs7,5,0xF04),
    DN(___,0,0xF03),
};
static const unsigned char P34[] = {
    DN(___,0,0xF04),
    DN(___,0,0xF03),
    DN(E_7,5,0xF04),
    DN(___,0,0xF03),
    DN(___,0,0xF04),
    DN(___,0,0xF03),
    DN(___,0,0xF04),
    DN(___,0,0xF03),
    DN(___,0,0xF04),
    DN(___,0,0xF03),
    DN(___,0,0xF04),
    DN(___,0,0xF03),
    DN(___,0,0xF04),
    DN(___,0,0xF03),
    DN(___,0,0xF04),
    DN(___,0,0xF03),
    DN(E_7,5,0xF04),
    DN(___,0,0xF03),
    DN(Gs7,5,0xF04),
    DN(___,0,0xF03),
    DN(___,0,0xF04),
    DN(___,0,0xF03),
    DN(E_7,5,0xF04),
    DN(___,0,0xF03),
    DN(Gs7,5,0xF04),
    DN(___,0,0xF03),
    DN(___,0,0xF04),
    DN(___,0,0xF03),
    DN(Ds7,5,0xF04),
    DN(___,0,0xF03),
    DN(G_7,5,0xF04),
    DN(___,0,0xF03),
    DN(___,0,0xF04),
    DN(___,0,0xF03),
    DN(Ds7,5,0xF04),
    DN(___,0,0xF03),
    DN(___,0,0xF04),
    DN(___,0,0xF03),
    DN(___,0,0xF04),
    DN(___,0,0xF03),
    DN(___,0,0xF04),
    DN(___,0,0xF03),
    DN(___,0,0xF04),
    DN(___,0,0xF03),
    DN(___,0,0xF04),
    DN(___,0,0xF03),
    DN(___,0,0xF04),
    DN(___,0,0xF03),
    DN(Ds7,5,0xF04),
    DN(___,0,0xF03),
    DN(G_7,5,0xF04),
    DN(___,0,0xF03),
    DN(___,0,0xF04),
    DN(___,0,0xF03),
    DN(Ds7,5,0xF04),
    DN(___,0,0xF03),
    DN(G_7,5,0xF04),
    DN(___,0,0xF03),
    DN(___,0,0xF04),
    DN(___,0,0xF03),
    DN(E_7,5,0xF04),
    DN(___,0,0xF03),
    DN(Gs7,5,0xF04),
    DN(___,0,0xF03),
};
static const unsigned char P35[] = {
    DN(___,0,0xF04),
    DN(___,0,0xF03),
    DN(E_7,5,0xF04),
    DN(___,0,0xF03),
    DN(___,0,0xF04),
    DN(___,0,0xF03),
    DN(___,0,0xF04),
    DN(___,0,0xF03),
    DN(___,0,0xF04),
    DN(___,0,0xF03),
    DN(___,0,0xF04),
    DN(___,0,0xF03),
    DN(___,0,0xF04),
    DN(___,0,0xF03),
    DN(___,0,0xF04),
    DN(___,0,0xF03),
    DN(E_7,5,0xF04),
    DN(___,0,0xF03),
    DN(Gs7,5,0xF04),
    DN(___,0,0xF03),
    DN(___,0,0xF04),
    DN(___,0,0xF03),
    DN(E_7,5,0xF04),
    DN(___,0,0xF03),
    DN(Gs7,5,0xF04),
    DN(___,0,0xF03),
    DN(___,0,0xF04),
    DN(___,0,0xF03),
    DN(E_7,5,0xF04),
    DN(___,0,0xF03),
    DN(Gs7,5,0xF04),
    DN(___,0,0xF03),
    DN(___,0,0xF04),
    DN(___,0,0xF03),
    DN(E_7,5,0xF04),
    DN(___,0,0xF03),
    DN(___,0,0xF04),
    DN(___,0,0xF03),
    DN(___,0,0xF04),
    DN(___,0,0xF03),
    DN(___,0,0xF04),
    DN(___,0,0xF03),
    DN(___,0,0xF04),
    DN(___,0,0xF03),
    DN(___,0,0xF04),
    DN(___,0,0xF03),
    DN(___,0,0xF04),
    DN(___,0,0xF03),
    DN(E_7,5,0xF04),
    DN(___,0,0xF03),
    DN(Gs7,5,0xF04),
    DN(___,0,0xF03),
    DN(___,0,0xF04),
    DN(___,0,0xF03),
    DN(E_7,5,0xF04),
    DN(___,0,0xF03),
    DN(Gs7,5,0xF04),
    DN(___,0,0xF03),
    DN(___,0,0xF04),
    DN(___,0,0xF03),
    DN(E_7,5,0xF04),
    DN(___,0,0xF03),
    DN(Gs7,5,0xF04),
    DN(___,0,0xF03),
};
static const unsigned char P36[] = {
    DN(___,0,0x000),
    DN(___,0,0x000),
    DN(___,0,0x000),
    DN(___,0,0x000),
    DN(___,0,0x000),
    DN(___,0,0x000),
    DN(___,0,0x000),
    DN(___,0,0x000),
    DN(___,0,0x000),
    DN(___,0,0x000),
    DN(___,0,0x000),
    DN(___,0,0x000),
    DN(___,0,0x000),
    DN(___,0,0x000),
    DN(___,0,0x000),
    DN(___,0,0x000),
    DN(___,0,0x000),
    DN(___,0,0x000),
    DN(___,0,0x000),
    DN(___,0,0x000),
    DN(___,0,0x000),
    DN(___,0,0x000),
    DN(___,0,0x000),
    DN(___,0,0x000),
    DN(___,0,0x000),
    DN(___,0,0x000),
    DN(___,0,0x000),
    DN(___,0,0x000),
    DN(___,0,0x000),
    DN(___,0,0x000),
    DN(___,0,0x000),
    DN(___,0,0x000),
    DN(___,0,0x000),
    DN(___,0,0x000),
    DN(___,0,0x000),
    DN(___,0,0x000),
    DN(___,0,0x000),
    DN(___,0,0x000),
    DN(___,0,0x000),
    DN(___,0,0x000),
    DN(___,0,0x000),
    DN(___,0,0x000),
    DN(___,0,0x000),
    DN(___,0,0x000),
    DN(___,0,0x000),
    DN(___,0,0x000),
    DN(___,0,0x000),
    DN(___,0,0x000),
    DN(___,0,0x000),
    DN(___,0,0x000),
    DN(___,0,0x000),
    DN(___,0,0x000),
    DN(___,0,0x000),
    DN(___,0,0x000),
    DN(___,0,0x000),
    DN(___,0,0x000),
    DN(___,0,0x000),
    DN(___,0,0xF03),
    DN(___,0,0x000),
    DN(___,0,0xF03),
    DN(___,0,0x000),
    DN(___,0,0x000),
    DN(___,0,0x000),
    DN(___,0,0x000),
};
static const unsigned char P38[] = {
    DN(A_6,4,0xF04),
    DN(___,0,0xF03),
    DN(___,0,0xF04),
    DN(___,0,0xF03),
    DN(___,0,0xF04),
    DN(___,0,0xF03),
    DN(___,0,0xF04),
    DN(___,0,0xF03),
    DN(___,0,0xF04),
    DN(___,0,0xF03),
    DN(___,0,0xF04),
    DN(___,0,0xF03),
    DN(___,0,0xF04),
    DN(___,0,0xF03),
    DN(___,0,0xF04),
    DN(___,0,0xF03),
    DN(___,0,0xF04),
    DN(___,0,0xF03),
    DN(___,0,0xF04),
    DN(___,0,0xF03),
    DN(___,0,0xF04),
    DN(___,0,0xF03),
    DN(___,0,0xF04),
    DN(___,0,0xF03),
    DN(___,0,0xF04),
    DN(___,0,0xF03),
    DN(___,0,0xF04),
    DN(___,0,0xF03),
    DN(___,0,0xF04),
    DN(___,0,0xF03),
    DN(___,0,0xF04),
    DN(___,0,0xF03),
    DN(D_7,3,0xF04),
    DN(___,0,0xF03),
    DN(___,0,0xF04),
    DN(___,0,0xF03),
    DN(___,0,0xF04),
    DN(___,0,0xF03),
    DN(D_7,3,0xF04),
    DN(___,0,0xF03),
    DN(___,0,0xF04),
    DN(___,0,0xF03),
    DN(___,0,0xF04),
    DN(___,0,0xF03),
    DN(D_7,3,0xF04),
    DN(___,0,0xF03),
    DN(___,0,0xF04),
    DN(___,0,0xF03),
    DN(___,0,0xF04),
    DN(___,0,0xF03),
    DN(D_7,3,0xF04),
    DN(___,0,0xF03),
    DN(___,0,0xF04),
    DN(___,0,0xF03),
    DN(___,0,0xF04),
    DN(___,0,0xF03),
    DN(D_7,3,0xF04),
    DN(___,0,0xE00),
    DN(D_7,3,0xF04),
    DN(___,0,0xE00),
    DN(D_7,3,0xF04),
    DN(___,0,0xF03),
    DN(___,0,0xF04),
    DN(___,0,0xF03),
};
static const unsigned char P42[] = {
    DN(F_4,8,0xC0C),
    DN(A_4,8,0xC0C),
    DN(C_5,8,0xC0B),
    DN(E_5,9,0xC0B),
    DN(F_4,9,0xC0A),
    DN(A_4,9,0xC0A),
    DN(C_5,10,0xC09),
    DN(E_5,10,0xC09),
    DN(F_4,10,0xC08),
    DN(A_4,11,0xC08),
    DN(C_5,11,0xC07),
    DN(E_5,11,0xC07),
    DN(F_4,11,0xC06),
    DN(A_4,8,0xC06),
    DN(C_5,8,0xC05),
    DN(E_5,8,0xC05),
    DN(F_4,8,0xC0C),
    DN(A_4,8,0xC0C),
    DN(C_5,8,0xC0B),
    DN(Ds5,9,0xC0B),
    DN(F_4,9,0xC0A),
    DN(A_4,9,0xC0A),
    DN(C_5,10,0xC09),
    DN(Ds5,10,0xC09),
    DN(F_4,10,0xC08),
    DN(A_4,11,0xC08),
    DN(C_5,11,0xC07),
    DN(Ds5,11,0xC07),
    DN(F_4,11,0xC06),
    DN(A_4,8,0xC06),
    DN(C_5,8,0xC05),
    DN(Ds5,8,0xC05),
    DN(F_4,8,0xC0C),
    DN(G_4,8,0xC0C),
    DN(As4,8,0xC0B),
    DN(D_5,9,0xC0B),
    DN(F_4,9,0xC0A),
    DN(G_4,9,0xC0A),
    DN(As4,10,0xC09),
    DN(D_5,10,0xC09),
    DN(F_4,10,0xC08),
    DN(G_4,11,0xC08),
    DN(As4,11,0xC07),
    DN(D_5,11,0xC07),
    DN(F_4,11,0xC06),
    DN(G_4,8,0xC06),
    DN(As4,8,0xC05),
    DN(D_5,8,0xC05),
    DN(G_4,8,0xC0C),
    DN(As4,8,0xC0C),
    DN(D_5,8,0xC0B),
    DN(E_5,9,0xC0B),
    DN(G_4,9,0xC0A),
    DN(As4,9,0xC0A),
    DN(D_5,10,0xC09),
    DN(E_5,10,0xC09),
    DN(G_4,10,0xC08),
    DN(As4,11,0xC08),
    DN(D_5,11,0xC07),
    DN(E_5,11,0xC07),
    DN(G_4,11,0xC06),
    DN(As4,8,0xC06),
    DN(D_5,8,0xC05),
    DN(E_5,8,0xC05),
};
static const unsigned char P43[] = {
    DN(F_4,8,0xC0C),
    DN(A_4,8,0xC0C),
    DN(C_5,8,0xC0B),
    DN(E_5,9,0xC0B),
    DN(F_4,9,0xC0A),
    DN(A_4,9,0xC0A),
    DN(C_5,10,0xC09),
    DN(E_5,10,0xC09),
    DN(F_4,10,0xC08),
    DN(A_4,11,0xC08),
    DN(C_5,11,0xC07),
    DN(E_5,11,0xC07),
    DN(F_4,11,0xC06),
    DN(A_4,8,0xC06),
    DN(C_5,8,0xC05),
    DN(E_5,8,0xC05),
    DN(F_4,8,0xC0C),
    DN(A_4,8,0xC0C),
    DN(C_5,8,0xC0B),
    DN(Ds5,9,0xC0B),
    DN(F_4,9,0xC0A),
    DN(A_4,9,0xC0A),
    DN(C_5,10,0xC09),
    DN(Ds5,10,0xC09),
    DN(F_4,10,0xC08),
    DN(A_4,11,0xC08),
    DN(C_5,11,0xC07),
    DN(Ds5,11,0xC07),
    DN(F_4,11,0xC06),
    DN(A_4,8,0xC06),
    DN(C_5,8,0xC05),
    DN(Ds5,8,0xC05),
    DN(F_4,8,0xC0C),
    DN(G_4,8,0xC0C),
    DN(As4,8,0xC0B),
    DN(D_5,9,0xC0B),
    DN(F_4,9,0xC0A),
    DN(G_4,9,0xC0A),
    DN(As4,10,0xC09),
    DN(D_5,10,0xC09),
    DN(F_4,10,0xC08),
    DN(G_4,11,0xC08),
    DN(As4,11,0xC07),
    DN(D_5,11,0xC07),
    DN(F_4,11,0xC06),
    DN(G_4,8,0xC06),
    DN(As4,8,0xC05),
    DN(D_5,8,0xC05),
    DN(Ds4,8,0xC0C),
    DN(G_4,8,0xC0C),
    DN(As4,8,0xC0B),
    DN(D_5,9,0xC0B),
    DN(Ds4,9,0xC0A),
    DN(G_4,9,0xC0A),
    DN(As4,10,0xC09),
    DN(D_5,10,0xC09),
    DN(Ds4,10,0xC08),
    DN(G_4,11,0xC08),
    DN(As4,11,0xC07),
    DN(D_5,11,0xC07),
    DN(Ds4,11,0xC06),
    DN(G_4,8,0xC06),
    DN(As4,8,0xC05),
    DN(D_5,8,0xC05),
};
static const unsigned char P44[] = {
    DN(Gs4,8,0xC0C),
    DN(C_5,8,0xC0C),
    DN(D_5,8,0xC0B),
    DN(F_5,9,0xC0B),
    DN(Gs4,9,0xC0A),
    DN(C_5,9,0xC0A),
    DN(D_5,10,0xC09),
    DN(F_5,10,0xC09),
    DN(Gs4,10,0xC08),
    DN(C_5,11,0xC08),
    DN(D_5,11,0xC07),
    DN(F_5,11,0xC07),
    DN(Gs4,11,0xC06),
    DN(C_5,8,0xC06),
    DN(D_5,8,0xC05),
    DN(F_5,8,0xC05),
    DN(Gs4,8,0xC0C),
    DN(C_5,8,0xC0C),
    DN(Cs5,8,0xC0B),
    DN(F_5,9,0xC0B),
    DN(Gs4,9,0xC0A),
    DN(C_5,9,0xC0A),
    DN(Cs5,10,0xC09),
    DN(F_5,10,0xC09),
    DN(Gs4,10,0xC08),
    DN(C_5,11,0xC08),
    DN(Cs5,11,0xC07),
    DN(F_5,11,0xC07),
    DN(Gs4,11,0xC06),
    DN(C_5,8,0xC06),
    DN(Cs5,8,0xC05),
    DN(F_5,8,0xC05),
    DN(Gs4,8,0xC0C),
    DN(C_5,8,0xC0C),
    DN(Cs5,8,0xC0B),
    DN(F_5,9,0xC0B),
    DN(Gs4,9,0xC0A),
    DN(C_5,9,0xC0A),
    DN(Cs5,10,0xC09),
    DN(F_5,10,0xC09),
    DN(Gs4,10,0xC08),
    DN(C_5,11,0xC08),
    DN(Cs5,11,0xC07),
    DN(F_5,11,0xC07),
    DN(Gs4,11,0xC06),
    DN(C_5,8,0xC06),
    DN(Cs5,8,0xC05),
    DN(F_5,8,0xC05),
    DN(G_4,8,0xC0C),
    DN(As4,8,0xC0C),
    DN(Cs5,8,0xC0B),
    DN(E_5,9,0xC0B),
    DN(G_4,9,0xC0A),
    DN(As4,9,0xC0A),
    DN(Cs5,10,0xC09),
    DN(E_5,10,0xC09),
    DN(G_4,10,0xC08),
    DN(As4,11,0xC08),
    DN(Cs5,11,0xC07),
    DN(E_5,11,0xC07),
    DN(G_4,11,0xC06),
    DN(As4,8,0xC06),
    DN(Cs5,8,0xC05),
    DN(E_5,8,0xC05),
};
static const unsigned char P45[] = {
    DN(F_4,8,0xC0C),
    DN(Gs4,8,0xC0C),
    DN(C_5,8,0xC0B),
    DN(Ds5,9,0xC0B),
    DN(F_4,9,0xC0A),
    DN(Gs4,9,0xC0A),
    DN(C_5,10,0xC09),
    DN(Ds5,10,0xC09),
    DN(F_4,10,0xC08),
    DN(Gs4,11,0xC08),
    DN(C_5,11,0xC07),
    DN(Ds5,11,0xC07),
    DN(F_4,11,0xC06),
    DN(Gs4,8,0xC06),
    DN(C_5,8,0xC05),
    DN(Ds5,8,0xC05),
    DN(F_4,8,0xC0C),
    DN(Gs4,8,0xC0C),
    DN(C_5,8,0xC0B),
    DN(Ds5,9,0xC0B),
    DN(F_4,9,0xC0A),
    DN(Gs4,9,0xC0A),
    DN(C_5,10,0xC09),
    DN(Ds5,10,0xC09),
    DN(F_4,10,0xC08),
    DN(Gs4,11,0xC08),
    DN(C_5,11,0xC07),
    DN(Ds5,11,0xC07),
    DN(F_4,11,0xC06),
    DN(Gs4,8,0xC06),
    DN(C_5,8,0xC05),
    DN(Ds5,8,0xC05),
    DN(Gs4,8,0xC0C),
    DN(C_5,8,0xC0C),
    DN(Ds5,8,0xC0B),
    DN(G_5,9,0xC0B),
    DN(Gs4,9,0xC0A),
    DN(C_5,9,0xC0A),
    DN(Ds5,10,0xC09),
    DN(G_5,10,0xC09),
    DN(Gs4,10,0xC08),
    DN(C_5,11,0xC08),
    DN(Ds5,11,0xC07),
    DN(G_5,11,0xC07),
    DN(Gs4,11,0xC06),
    DN(C_5,8,0xC06),
    DN(Ds5,8,0xC05),
    DN(G_5,8,0xC05),
    DN(A_4,8,0xC0C),
    DN(C_5,8,0xC0C),
    DN(Ds5,8,0xC0B),
    DN(G_5,9,0xC0B),
    DN(A_4,9,0xC0A),
    DN(C_5,9,0xC0A),
    DN(Ds5,10,0xC09),
    DN(G_5,10,0xC09),
    DN(A_4,10,0xC08),
    DN(C_5,11,0xC08),
    DN(Ds5,11,0xC07),
    DN(G_5,11,0xC07),
    DN(A_4,11,0xC06),
    DN(C_5,8,0xC06),
    DN(Ds5,8,0xC05),
    DN(G_5,8,0xC05),
};
static const unsigned char P46[] = {
    DN(B_5,5,0x000),
    DN(C_6,6,0x308),
    DN(___,0,0x308),
    DN(___,0,0x308),
    DN(___,0,0x000),
    DN(___,0,0x000),
    DN(___,0,0x000),
    DN(___,0,0x000),
    DN(D_6,5,0x000),
    DN(___,0,0x000),
    DN(___,0,0xE00),
    DN(___,0,0x000),
    DN(___,0,0x000),
    DN(___,0,0x000),
    DN(___,0,0x000),
    DN(___,0,0x000),
    DN(C_6,5,0x000),
    DN(___,0,0x000),
    DN(___,0,0x000),
    DN(___,0,0x000),
    DN(D_6,5,0x000),
    DN(___,0,0x000),
    DN(___,0,0xE00),
    DN(___,0,0x000),
    DN(___,0,0x000),
    DN(___,0,0x000),
    DN(___,0,0x000),
    DN(___,0,0x000),
    DN(E_6,5,0x000),
    DN(F_6,6,0x308),
    DN(___,0,0x308),
    DN(___,0,0x308),
    DN(___,0,0x000),
    DN(___,0,0x000),
    DN(___,0,0x000),
    DN(___,0,0x000),
    DN(D_6,5,0x000),
    DN(___,0,0x000),
    DN(___,0,0xE00),
    DN(___,0,0x000),
    DN(___,0,0x000),
    DN(___,0,0x000),
    DN(___,0,0x000),
    DN(___,0,0x000),
    DN(C_6,5,0x000),
    DN(___,0,0x000),
    DN(___,0,0x000),
    DN(___,0,0x000),
    DN(___,0,0x000),
    DN(___,0,0x000),
    DN(___,0,0x000),
    DN(___,0,0x000),
    DN(D_6,5,0x000),
    DN(___,0,0x000),
    DN(___,0,0xE00),
    DN(___,0,0x000),
    DN(Gs5,5,0x000),
    DN(___,0,0x000),
    DN(G_5,6,0x000),
    DN(___,0,0x000),
    DN(F_5,5,0x000),
    DN(___,0,0x000),
    DN(___,0,0x000),
    DN(___,0,0x000),
};
static const unsigned char P47[] = {
    DN(___,0,0x000),
    DN(___,0,0x000),
    DN(___,0,0x000),
    DN(___,0,0x000),
    DN(D_5,5,0x000),
    DN(___,0,0x000),
    DN(___,0,0xE00),
    DN(___,0,0x000),
    DN(___,0,0x000),
    DN(___,0,0x000),
    DN(___,0,0x000),
    DN(___,0,0x000),
    DN(C_5,5,0x000),
    DN(___,0,0x000),
    DN(___,0,0xE00),
    DN(___,0,0x000),
    DN(___,0,0x000),
    DN(___,0,0x000),
    DN(___,0,0x000),
    DN(___,0,0x000),
    DN(___,0,0x000),
    DN(___,0,0x000),
    DN(___,0,0x000),
    DN(___,0,0x000),
    DN(___,0,0x000),
    DN(___,0,0x000),
    DN(___,0,0x000),
    DN(___,0,0x000),
    DN(C_5,5,0x000),
    DN(___,0,0x000),
    DN(D_5,6,0x000),
    DN(___,0,0x000),
    DN(Ds5,5,0x000),
    DN(___,0,0x000),
    DN(___,0,0x000),
    DN(___,0,0x000),
    DN(F_5,6,0x000),
    DN(___,0,0x000),
    DN(___,0,0xE00),
    DN(___,0,0x000),
    DN(G_5,5,0x000),
    DN(___,0,0x000),
    DN(___,0,0xE00),
    DN(___,0,0x000),
    DN(A_5,5,0x000),
    DN(As5,6,0x308),
    DN(___,0,0x308),
    DN(___,0,0x308),
    DN(___,0,0x000),
    DN(___,0,0x000),
    DN(___,0,0x000),
    DN(___,0,0x000),
    DN(Ds6,6,0x000),
    DN(___,0,0x000),
    DN(___,0,0xE00),
    DN(___,0,0x000),
    DN(D_6,5,0x000),
    DN(___,0,0x000),
    DN(___,0,0x000),
    DN(___,0,0x000),
    DN(As5,6,0x000),
    DN(___,0,0x000),
    DN(___,0,0xE00),
    DN(___,0,0x000),
};
static const unsigned char P48[] = {
    DN(D_7,3,0xF04),
    DN(___,0,0xF03),
    DN(___,0,0xF04),
    DN(___,0,0xF03),
    DN(Fs7,2,0xF04),
    DN(___,0,0xF03),
    DN(___,0,0xF04),
    DN(___,0,0xF03),
    DN(D_7,3,0xF04),
    DN(___,0,0xF03),
    DN(___,0,0xF04),
    DN(___,0,0xF03),
    DN(Fs7,2,0xF04),
    DN(___,0,0xF03),
    DN(___,0,0xF04),
    DN(___,0,0xF03),
    DN(D_7,3,0xF04),
    DN(___,0,0xF03),
    DN(___,0,0xF04),
    DN(___,0,0xF03),
    DN(Fs7,2,0xF04),
    DN(___,0,0xF03),
    DN(___,0,0xF04),
    DN(___,0,0xF03),
    DN(D_7,3,0xF04),
    DN(___,0,0xF03),
    DN(Fs7,1,0xF04),
    DN(___,0,0xF03),
    DN(Fs7,2,0xF04),
    DN(___,0,0xF03),
    DN(___,0,0xF04),
    DN(___,0,0xF03),
    DN(D_7,3,0xF04),
    DN(___,0,0xF03),
    DN(___,0,0xF04),
    DN(___,0,0xF03),
    DN(Fs7,2,0xF04),
    DN(___,0,0xF03),
    DN(___,0,0xF04),
    DN(___,0,0xF03),
    DN(D_7,3,0xF04),
    DN(___,0,0xF03),
    DN(___,0,0xF04),
    DN(___,0,0xF03),
    DN(Fs7,2,0xF04),
    DN(___,0,0xF03),
    DN(___,0,0xF04),
    DN(___,0,0xF03),
    DN(D_7,3,0xF04),
    DN(___,0,0xF03),
    DN(___,0,0xF04),
    DN(___,0,0xF03),
    DN(Fs7,2,0xF04),
    DN(___,0,0xF03),
    DN(___,0,0xF04),
    DN(___,0,0xF03),
    DN(D_7,3,0xF04),
    DN(___,0,0xF03),
    DN(Fs7,1,0xF04),
    DN(___,0,0xF03),
    DN(Fs7,2,0xF04),
    DN(___,0,0xF03),
    DN(___,0,0xF04),
    DN(___,0,0xF03),
};
static const unsigned char P49[] = {
    DN(Gs5,5,0x000),
    DN(___,0,0x000),
    DN(___,0,0x000),
    DN(___,0,0x000),
    DN(___,0,0x000),
    DN(___,0,0x000),
    DN(___,0,0x000),
    DN(___,0,0x000),
    DN(G_5,5,0x000),
    DN(___,0,0x000),
    DN(___,0,0xE00),
    DN(___,0,0x000),
    DN(___,0,0x000),
    DN(___,0,0x000),
    DN(___,0,0x000),
    DN(___,0,0x000),
    DN(Gs5,5,0x000),
    DN(___,0,0x000),
    DN(___,0,0x000),
    DN(___,0,0x000),
    DN(C_6,5,0x000),
    DN(___,0,0x000),
    DN(___,0,0xE00),
    DN(___,0,0x000),
    DN(___,0,0x000),
    DN(___,0,0x000),
    DN(___,0,0x000),
    DN(___,0,0x000),
    DN(D_6,5,0x000),
    DN(Ds6,6,0x308),
    DN(___,0,0x308),
    DN(___,0,0x308),
    DN(___,0,0x000),
    DN(___,0,0x000),
    DN(___,0,0x000),
    DN(___,0,0x000),
    DN(D_6,5,0x000),
    DN(___,0,0x000),
    DN(___,0,0xE00),
    DN(___,0,0x000),
    DN(C_6,5,0x000),
    DN(___,0,0x000),
    DN(D_6,6,0x000),
    DN(___,0,0x000),
    DN(___,0,0xE00),
    DN(___,0,0x000),
    DN(Ds6,5,0x000),
    DN(___,0,0x000),
    DN(___,0,0x000),
    DN(___,0,0x000),
    DN(___,0,0x000),
    DN(___,0,0x000),
    DN(F_6,6,0x000),
    DN(___,0,0x000),
    DN(___,0,0xE00),
    DN(___,0,0x000),
    DN(G_6,5,0x000),
    DN(___,0,0x000),
    DN(F_6,6,0x000),
    DN(___,0,0x000),
    DN(___,0,0xE00),
    DN(___,0,0x000),
    DN(A_6,5,0x000),
    DN(As6,6,0x308),
};
static const unsigned char P50[] = {
    DN(___,0,0x308),
    DN(___,0,0x300),
    DN(___,0,0x300),
    DN(___,0,0x000),
    DN(___,0,0x000),
    DN(___,0,0x000),
    DN(___,0,0x000),
    DN(___,0,0x000),
    DN(___,0,0x000),
    DN(___,0,0x000),
    DN(___,0,0x000),
    DN(___,0,0x000),
    DN(___,0,0x000),
    DN(___,0,0x000),
    DN(Gs6,6,0x000),
    DN(G_6,6,0x000),
    DN(F_6,5,0x000),
    DN(___,0,0x000),
    DN(___,0,0x000),
    DN(___,0,0x000),
    DN(___,0,0x000),
    DN(___,0,0x000),
    DN(F_6,6,0x000),
    DN(___,0,0x000),
    DN(___,0,0x000),
    DN(___,0,0x000),
    DN(___,0,0x000),
    DN(___,0,0x000),
    DN(___,0,0x000),
    DN(___,0,0x000),
    DN(___,0,0x208),
    DN(___,0,0x208),
    DN(___,0,0xC00),
    DN(___,0,0x000),
    DN(___,0,0x000),
    DN(___,0,0x000),
    DN(___,0,0x000),
    DN(___,0,0x000),
    DN(___,0,0x000),
    DN(___,0,0x000),
    DN(___,0,0x000),
    DN(___,0,0x000),
    DN(___,0,0x000),
    DN(___,0,0x000),
    DN(___,0,0x000),
    DN(___,0,0x000),
    DN(___,0,0x000),
    DN(___,0,0x000),
    DN(___,0,0x000),
    DN(___,0,0x000),
    DN(___,0,0x000),
    DN(___,0,0x000),
    DN(___,0,0x000),
    DN(___,0,0x000),
    DN(___,0,0x000),
    DN(___,0,0x000),
    DN(___,0,0x000),
    DN(___,0,0x000),
    DN(___,0,0x000),
    DN(___,0,0x000),
    DN(___,0,0x000),
    DN(___,0,0x000),
    DN(___,0,0x000),
    DN(___,0,0x000),
};
static const unsigned char P40[] = {
    DN(___,0,0x000),
    DN(___,0,0x000),
    DN(___,0,0x000),
    DN(___,0,0x000),
    DN(___,0,0x220),
    DN(___,0,0x220),
    DN(___,0,0xE00),
    DN(___,0,0x000),
    DN(___,0,0x000),
    DN(___,0,0x000),
    DN(___,0,0x000),
    DN(___,0,0x000),
    DN(___,0,0x000),
    DN(___,0,0x000),
    DN(___,0,0x000),
    DN(___,0,0x000),
    DN(___,0,0x000),
    DN(___,0,0x000),
    DN(___,0,0x000),
    DN(___,0,0x000),
    DN(___,0,0x000),
    DN(___,0,0x000),
    DN(___,0,0x000),
    DN(___,0,0x000),
    DN(___,0,0x000),
    DN(___,0,0x000),
    DN(___,0,0x000),
    DN(___,0,0x000),
    DN(Cs6,5,0x000),
    DN(Ds6,6,0x308),
    DN(___,0,0x308),
    DN(___,0,0x308),
    DN(___,0,0x000),
    DN(___,0,0x000),
    DN(___,0,0x000),
    DN(___,0,0x000),
    DN(Cs6,5,0x000),
    DN(___,0,0x000),
    DN(___,0,0xE00),
    DN(___,0,0x000),
    DN(___,0,0x000),
    DN(___,0,0x000),
    DN(___,0,0x000),
    DN(___,0,0x000),
    DN(As5,5,0x000),
    DN(C_6,6,0x308),
    DN(___,0,0x308),
    DN(___,0,0x308),
    DN(___,0,0x000),
    DN(___,0,0x000),
    DN(___,0,0x000),
    DN(___,0,0x000),
    DN(___,0,0x000),
    DN(___,0,0x000),
    DN(Cs6,6,0x000),
    DN(C_6,6,0x000),
    DN(As5,5,0x000),
    DN(___,0,0xF03),
    DN(___,0,0x000),
    DN(___,0,0xF03),
    DN(___,0,0xE00),
    DN(___,0,0x000),
    DN(___,0,0x000),
    DN(___,0,0x000),
};
static const unsigned char P41[] = {
    DN(Gs4,1,0xC0C),
    DN(C_5,1,0xC0C),
    DN(D_5,1,0xC0B),
    DN(F_5,2,0xC0B),
    DN(Gs4,2,0xC0A),
    DN(C_5,2,0xC0A),
    DN(D_5,3,0xC09),
    DN(F_5,3,0xC09),
    DN(Gs4,3,0xC08),
    DN(C_5,4,0xC08),
    DN(D_5,4,0xC07),
    DN(F_5,4,0xC07),
    DN(Gs4,4,0xC06),
    DN(C_5,1,0xC06),
    DN(D_5,1,0xC05),
    DN(F_5,1,0xC05),
    DN(Gs4,1,0xC0C),
    DN(C_5,1,0xC0C),
    DN(Cs5,1,0xC0B),
    DN(F_5,2,0xC0B),
    DN(Gs4,2,0xC0A),
    DN(C_5,2,0xC0A),
    DN(Cs5,3,0xC09),
    DN(F_5,3,0xC09),
    DN(Gs4,3,0xC08),
    DN(C_5,4,0xC08),
    DN(Cs5,4,0xC07),
    DN(F_5,4,0xC07),
    DN(Gs4,4,0xC06),
    DN(C_5,1,0xC06),
    DN(Cs5,1,0xC05),
    DN(F_5,1,0xC05),
    DN(Gs4,1,0xC0C),
    DN(C_5,1,0xC0C),
    DN(Cs5,1,0xC0B),
    DN(F_5,2,0xC0B),
    DN(Gs4,2,0xC0A),
    DN(C_5,2,0xC0A),
    DN(Cs5,3,0xC09),
    DN(F_5,3,0xC09),
    DN(Gs4,3,0xC08),
    DN(C_5,4,0xC08),
    DN(Cs5,4,0xC07),
    DN(F_5,4,0xC07),
    DN(Gs4,4,0xC06),
    DN(C_5,1,0xC06),
    DN(Cs5,1,0xC05),
    DN(F_5,1,0xC05),
    DN(G_4,1,0xC0C),
    DN(As4,1,0xC0C),
    DN(Cs5,1,0xC0B),
    DN(E_5,2,0xC0B),
    DN(G_4,2,0xC0A),
    DN(As4,2,0xC0A),
    DN(Cs5,3,0xC09),
    DN(E_5,3,0xC09),
    DN(G_4,3,0xC08),
    DN(As4,4,0xC08),
    DN(Cs5,4,0xC07),
    DN(E_5,4,0xC07),
    DN(G_4,4,0xC06),
    DN(As4,1,0xC06),
    DN(Cs5,1,0xC05),
    DN(E_5,1,0xC05),
};
static const unsigned char P51[] = {
    DN(D_7,3,0xF04),
    DN(___,0,0xF03),
    DN(___,0,0xF04),
    DN(___,0,0xF03),
    DN(Fs7,2,0xF04),
    DN(___,0,0xF03),
    DN(___,0,0xF04),
    DN(___,0,0xF03),
    DN(D_7,3,0xF04),
    DN(___,0,0xF03),
    DN(___,0,0xF04),
    DN(___,0,0xF03),
    DN(Fs7,2,0xF04),
    DN(___,0,0xF03),
    DN(___,0,0xF04),
    DN(___,0,0xF03),
    DN(D_7,3,0xF04),
    DN(___,0,0xF03),
    DN(___,0,0xF04),
    DN(___,0,0xF03),
    DN(Fs7,2,0xF04),
    DN(___,0,0xF03),
    DN(___,0,0xF04),
    DN(___,0,0xF03),
    DN(D_7,3,0xF04),
    DN(___,0,0xF03),
    DN(Fs7,1,0xF04),
    DN(___,0,0xF03),
    DN(Fs7,2,0xF04),
    DN(___,0,0xF03),
    DN(___,0,0xF04),
    DN(___,0,0xF03),
    DN(D_7,4,0xF04),
    DN(___,0,0xF03),
    DN(___,0,0xF04),
    DN(___,0,0xF03),
    DN(___,0,0xF04),
    DN(___,0,0xF03),
    DN(___,0,0xF04),
    DN(___,0,0xF03),
    DN(___,0,0xF04),
    DN(___,0,0xF03),
    DN(___,0,0xF04),
    DN(___,0,0xF03),
    DN(___,0,0xF04),
    DN(___,0,0xF03),
    DN(___,0,0xF04),
    DN(___,0,0xF03),
    DN(___,0,0xF04),
    DN(___,0,0xF03),
    DN(___,0,0xF04),
    DN(___,0,0xF03),
    DN(___,0,0xF04),
    DN(___,0,0xF03),
    DN(___,0,0xF04),
    DN(___,0,0xF03),
    DN(___,0,0xF04),
    DN(___,0,0xF03),
    DN(___,0,0xF04),
    DN(___,0,0xF03),
    DN(___,0,0xF04),
    DN(___,0,0xF03),
    DN(___,0,0xF04),
    DN(___,0,0xF03),
};
static const unsigned char P52[] = {
    DN(___,0,0xF04),
    DN(___,0,0xF03),
    DN(___,0,0xF04),
    DN(___,0,0xF03),
    DN(___,0,0xF04),
    DN(___,0,0xF03),
    DN(___,0,0xF04),
    DN(___,0,0xF03),
    DN(___,0,0xF04),
    DN(___,0,0xF03),
    DN(___,0,0xF04),
    DN(___,0,0xF03),
    DN(___,0,0xF04),
    DN(___,0,0xF03),
    DN(___,0,0xF04),
    DN(___,0,0xF03),
    DN(E_7,5,0xF04),
    DN(___,0,0xF03),
    DN(Gs7,5,0xF04),
    DN(___,0,0xF03),
    DN(___,0,0xF04),
    DN(___,0,0xF03),
    DN(E_7,5,0xF04),
    DN(___,0,0xF03),
    DN(Gs7,5,0xF04),
    DN(___,0,0xF03),
    DN(___,0,0xF04),
    DN(___,0,0xF03),
    DN(E_7,5,0xF04),
    DN(___,0,0xF03),
    DN(Gs7,5,0xF04),
    DN(___,0,0xF03),
    DN(___,0,0xF04),
    DN(___,0,0xF03),
    DN(E_7,5,0xF04),
    DN(___,0,0xF03),
    DN(___,0,0xF04),
    DN(___,0,0xF03),
    DN(___,0,0xF04),
    DN(___,0,0xF03),
    DN(___,0,0xF04),
    DN(___,0,0xF03),
    DN(___,0,0xF04),
    DN(___,0,0xF03),
    DN(___,0,0xF04),
    DN(___,0,0xF03),
    DN(___,0,0xF04),
    DN(___,0,0xF03),
    DN(E_7,5,0xF04),
    DN(___,0,0xF03),
    DN(Gs7,5,0xF04),
    DN(___,0,0xF03),
    DN(___,0,0xF04),
    DN(___,0,0xF03),
    DN(E_7,5,0xF04),
    DN(___,0,0xF03),
    DN(Gs7,5,0xF04),
    DN(___,0,0xF03),
    DN(___,0,0xF04),
    DN(___,0,0xF03),
    DN(E_7,5,0xF04),
    DN(___,0,0xF03),
    DN(Gs7,5,0xF04),
    DN(___,0,0xF03),
};
static const unsigned char P53[] = {
    DN(A_4,8,0xC0C),
    DN(C_5,8,0xC0C),
    DN(E_5,8,0xC0B),
    DN(F_5,9,0xC0B),
    DN(A_4,9,0xC0A),
    DN(C_5,9,0xC0A),
    DN(E_5,10,0xC09),
    DN(F_5,10,0xC09),
    DN(A_4,10,0xC08),
    DN(C_5,11,0xC08),
    DN(E_5,11,0xC07),
    DN(F_5,11,0xC07),
    DN(A_4,11,0xC06),
    DN(C_5,8,0xC06),
    DN(E_5,8,0xC05),
    DN(F_5,8,0xC05),
    DN(A_4,8,0xC04),
    DN(C_5,8,0xC04),
    DN(E_5,8,0xC03),
    DN(F_5,9,0xC03),
    DN(A_4,9,0xC02),
    DN(C_5,9,0xC02),
    DN(E_5,10,0xC01),
    DN(F_5,10,0xC01),
    DN(A_4,8,0xC0C),
    DN(C_5,8,0xC0C),
    DN(E_5,8,0xC0B),
    DN(F_5,9,0xC0B),
    DN(A_4,9,0xC0A),
    DN(C_5,9,0xC0A),
    DN(E_5,10,0xC09),
    DN(F_5,10,0xC09),
    DN(A_4,8,0xC0C),
    DN(B_4,8,0xC0C),
    DN(D_5,8,0xC0B),
    DN(F_5,8,0xC0B),
    DN(A_4,9,0xC0A),
    DN(B_4,9,0xC0A),
    DN(D_5,10,0xC09),
    DN(F_5,10,0xC09),
    DN(A_4,10,0xC08),
    DN(B_4,11,0xC08),
    DN(D_5,11,0xC07),
    DN(F_5,11,0xC07),
    DN(A_4,11,0xC06),
    DN(B_4,8,0xC06),
    DN(D_5,8,0xC05),
    DN(F_5,8,0xC05),
    DN(A_4,8,0xC04),
    DN(B_4,8,0xC04),
    DN(D_5,8,0xC03),
    DN(F_5,9,0xC03),
    DN(A_4,9,0xC02),
    DN(B_4,9,0xC02),
    DN(D_5,10,0xC01),
    DN(F_5,10,0xC01),
    DN(A_4,8,0xC0C),
    DN(B_4,8,0xC0C),
    DN(D_5,8,0xC0B),
    DN(F_5,8,0xC0B),
    DN(A_4,9,0xC0A),
    DN(B_4,9,0xC0A),
    DN(D_5,10,0xC09),
    DN(F_5,10,0xC09),
};
static const unsigned char P54[] = {
    DN(G_4,8,0xC0C),
    DN(A_4,8,0xC0C),
    DN(C_5,8,0xC0B),
    DN(E_5,9,0xC0B),
    DN(G_4,9,0xC0A),
    DN(A_4,9,0xC0A),
    DN(C_5,10,0xC09),
    DN(E_5,10,0xC09),
    DN(G_4,10,0xC08),
    DN(A_4,11,0xC08),
    DN(C_5,11,0xC07),
    DN(E_5,11,0xC07),
    DN(G_4,11,0xC06),
    DN(A_4,8,0xC06),
    DN(C_5,8,0xC05),
    DN(E_5,8,0xC05),
    DN(G_4,8,0xC04),
    DN(A_4,8,0xC04),
    DN(C_5,8,0xC03),
    DN(E_5,9,0xC03),
    DN(G_4,9,0xC02),
    DN(A_4,9,0xC02),
    DN(C_5,10,0xC01),
    DN(E_5,10,0xC01),
    DN(G_4,8,0xC0C),
    DN(A_4,8,0xC0C),
    DN(C_5,8,0xC0B),
    DN(E_5,9,0xC0B),
    DN(G_4,9,0xC0A),
    DN(A_4,9,0xC0A),
    DN(C_5,10,0xC09),
    DN(E_5,10,0xC09),
    DN(F_4,8,0xC0C),
    DN(A_4,8,0xC0C),
    DN(C_5,8,0xC0B),
    DN(E_5,8,0xC0B),
    DN(F_4,9,0xC0A),
    DN(A_4,9,0xC0A),
    DN(C_5,10,0xC09),
    DN(E_5,10,0xC09),
    DN(F_4,10,0xC08),
    DN(A_4,11,0xC08),
    DN(C_5,11,0xC07),
    DN(E_5,11,0xC07),
    DN(F_4,11,0xC06),
    DN(A_4,8,0xC06),
    DN(C_5,8,0xC05),
    DN(E_5,8,0xC05),
    DN(Fs4,8,0xC0C),
    DN(A_4,8,0xC0C),
    DN(C_5,8,0xC0B),
    DN(E_5,8,0xC0B),
    DN(Fs4,9,0xC0A),
    DN(A_4,9,0xC0A),
    DN(C_5,10,0xC09),
    DN(E_5,10,0xC09),
    DN(Fs4,8,0xC0C),
    DN(A_4,8,0xC0C),
    DN(C_5,8,0xC0B),
    DN(Ds5,8,0xC0B),
    DN(Fs4,9,0xC0A),
    DN(A_4,9,0xC0A),
    DN(C_5,10,0xC09),
    DN(Ds5,10,0xC09),
};
static const unsigned char P55[] = {
    DN(F_4,8,0xC0C),
    DN(G_4,8,0xC0C),
    DN(As4,8,0xC0B),
    DN(D_5,9,0xC0B),
    DN(F_4,9,0xC0A),
    DN(G_4,9,0xC0A),
    DN(As4,10,0xC09),
    DN(D_5,10,0xC09),
    DN(F_4,10,0xC08),
    DN(G_4,11,0xC08),
    DN(As4,11,0xC07),
    DN(D_5,11,0xC07),
    DN(F_4,11,0xC06),
    DN(G_4,8,0xC06),
    DN(As4,8,0xC05),
    DN(D_5,8,0xC05),
    DN(F_4,8,0xC04),
    DN(G_4,8,0xC04),
    DN(As4,8,0xC03),
    DN(D_5,9,0xC03),
    DN(F_4,9,0xC02),
    DN(G_4,9,0xC02),
    DN(As4,10,0xC01),
    DN(D_5,10,0xC01),
    DN(F_4,8,0xC0C),
    DN(G_4,8,0xC0C),
    DN(As4,8,0xC0B),
    DN(D_5,9,0xC0B),
    DN(F_4,9,0xC0A),
    DN(G_4,9,0xC0A),
    DN(As4,10,0xC09),
    DN(D_5,10,0xC09),
    DN(Fs4,8,0xC0C),
    DN(As4,8,0xC0C),
    DN(Cs5,8,0xC0B),
    DN(F_5,8,0xC0B),
    DN(Fs4,9,0xC0A),
    DN(As4,9,0xC0A),
    DN(Cs5,10,0xC09),
    DN(F_5,10,0xC09),
    DN(Fs4,10,0xC08),
    DN(As4,11,0xC08),
    DN(Cs5,11,0xC07),
    DN(F_5,11,0xC07),
    DN(Fs4,11,0xC06),
    DN(As4,8,0xC06),
    DN(Cs5,8,0xC05),
    DN(F_5,8,0xC05),
    DN(Fs4,8,0xC0C),
    DN(As4,8,0xC0C),
    DN(Cs5,8,0xC0B),
    DN(F_5,8,0xC0B),
    DN(Fs4,9,0xC0A),
    DN(As4,9,0xC0A),
    DN(Cs5,10,0xC09),
    DN(F_5,10,0xC09),
    DN(As4,8,0xC0C),
    DN(Cs5,8,0xC0C),
    DN(E_5,8,0xC0B),
    DN(A_5,8,0xC0B),
    DN(As4,9,0xC0A),
    DN(Cs5,9,0xC0A),
    DN(E_5,10,0xC09),
    DN(A_5,10,0xC09),
};
static const unsigned char P56[] = {
    DN(A_4,8,0xC0C),
    DN(Cs5,8,0xC0C),
    DN(E_5,8,0xC0B),
    DN(G_5,9,0xC0B),
    DN(A_4,9,0xC0A),
    DN(Cs5,9,0xC0A),
    DN(E_5,10,0xC09),
    DN(G_5,10,0xC09),
    DN(A_4,10,0xC08),
    DN(Cs5,11,0xC08),
    DN(E_5,11,0xC07),
    DN(G_5,11,0xC07),
    DN(A_4,11,0xC06),
    DN(Cs5,8,0xC06),
    DN(E_5,8,0xC05),
    DN(G_5,8,0xC05),
    DN(A_4,8,0xC04),
    DN(Cs5,8,0xC04),
    DN(E_5,8,0xC03),
    DN(G_5,9,0xC03),
    DN(A_4,9,0xC02),
    DN(Cs5,9,0xC02),
    DN(E_5,10,0xC01),
    DN(G_5,10,0xC01),
    DN(___,0,0xC00),
    DN(___,0,0x000),
    DN(___,0,0x000),
    DN(___,0,0x000),
    DN(___,0,0x000),
    DN(___,0,0x000),
    DN(___,0,0x000),
    DN(___,0,0x000),
    DN(___,0,0x000),
    DN(___,0,0x000),
    DN(___,0,0x000),
    DN(___,0,0x000),
    DN(___,0,0x000),
    DN(___,0,0x000),
    DN(___,0,0x000),
    DN(___,0,0x000),
    DN(___,0,0x000),
    DN(___,0,0x000),
    DN(___,0,0x000),
    DN(___,0,0x000),
    DN(___,0,0x000),
    DN(___,0,0x000),
    DN(___,0,0x000),
    DN(___,0,0x000),
    DN(___,0,0x000),
    DN(___,0,0x000),
    DN(___,0,0x000),
    DN(___,0,0x000),
    DN(___,0,0x000),
    DN(___,0,0x000),
    DN(___,0,0x000),
    DN(___,0,0x000),
    DN(___,0,0x000),
    DN(___,0,0x000),
    DN(___,0,0x000),
    DN(___,0,0x000),
    DN(___,0,0x000),
    DN(___,0,0x000),
    DN(___,0,0x000),
    DN(___,0,0x000),
};
static const unsigned char P58[] = {
    DN(Fs5,9,0x2FF),
    DN(___,0,0x2FF),
    DN(A_4,8,0x000),
    DN(___,0,0xE00),
    DN(A_4,7,0x000),
    DN(___,0,0xE00),
    DN(A_4,7,0x000),
    DN(___,0,0xE00),
    DN(Fs5,9,0x2FF),
    DN(___,0,0x2FF),
    DN(A_4,6,0x000),
    DN(___,0,0xE00),
    DN(A_4,5,0x000),
    DN(___,0,0xE00),
    DN(A_4,5,0x000),
    DN(___,0,0xE00),
    DN(Fs5,9,0x2FF),
    DN(___,0,0x2FF),
    DN(A_4,4,0x000),
    DN(___,0,0xE00),
    DN(A_4,4,0x000),
    DN(___,0,0xE00),
    DN(A_4,3,0x000),
    DN(___,0,0xE00),
    DN(Fs5,9,0x2FF),
    DN(___,0,0x2FF),
    DN(A_4,2,0x000),
    DN(___,0,0xE00),
    DN(A_6,1,0x000),
    DN(___,0,0x000),
    DN(A_5,1,0x000),
    DN(___,0,0xE00),
    DN(Fs5,9,0x2FF),
    DN(___,0,0x2FF),
    DN(A_3,8,0x000),
    DN(___,0,0xE00),
    DN(A_4,7,0x000),
    DN(___,0,0xE00),
    DN(A_3,7,0x000),
    DN(___,0,0xE00),
    DN(Fs5,9,0x2FF),
    DN(___,0,0x2FF),
    DN(A_3,6,0x000),
    DN(___,0,0xE00),
    DN(A_4,5,0x000),
    DN(___,0,0xE00),
    DN(A_3,5,0x000),
    DN(___,0,0xE00),
    DN(Fs5,9,0x2FF),
    DN(___,0,0x2FF),
    DN(A_3,4,0x000),
    DN(___,0,0xE00),
    DN(A_4,4,0x000),
    DN(___,0,0xE00),
    DN(A_3,3,0x000),
    DN(___,0,0xE00),
    DN(Fs5,9,0x2FF),
    DN(___,0,0x2FF),
    DN(Fs5,9,0x2FF),
    DN(___,0,0x2FF),
    DN(Fs5,9,0x2FF),
    DN(___,0,0x2FF),
    DN(Fs5,9,0x2FF),
    DN(___,0,0x2FF),
};
static const unsigned char P59[] = {
    DN(D_7,4,0xF04),
    DN(___,0,0xF03),
    DN(___,0,0xF04),
    DN(___,0,0xF03),
    DN(___,0,0xF04),
    DN(___,0,0xF03),
    DN(___,0,0xF04),
    DN(___,0,0xF03),
    DN(___,0,0xF04),
    DN(___,0,0xF03),
    DN(___,0,0xF04),
    DN(___,0,0xF03),
    DN(___,0,0xF04),
    DN(___,0,0xF03),
    DN(___,0,0xF04),
    DN(___,0,0xF03),
    DN(___,0,0xF04),
    DN(___,0,0xF03),
    DN(___,0,0xF04),
    DN(___,0,0xF03),
    DN(___,0,0xF04),
    DN(___,0,0xF03),
    DN(___,0,0xF04),
    DN(___,0,0xF03),
    DN(___,0,0xF04),
    DN(___,0,0xF03),
    DN(___,0,0xF04),
    DN(___,0,0xF03),
    DN(___,0,0xF04),
    DN(___,0,0xF03),
    DN(___,0,0xF04),
    DN(___,0,0xF03),
    DN(___,0,0xF04),
    DN(___,0,0xF03),
    DN(___,0,0xF04),
    DN(___,0,0xF03),
    DN(___,0,0xF04),
    DN(___,0,0xF03),
    DN(___,0,0xF04),
    DN(___,0,0xF03),
    DN(___,0,0xF04),
    DN(___,0,0xF03),
    DN(___,0,0xF04),
    DN(___,0,0xF03),
    DN(___,0,0xF04),
    DN(___,0,0xF03),
    DN(___,0,0xF04),
    DN(___,0,0xF03),
    DN(___,0,0xF04),
    DN(___,0,0xF03),
    DN(___,0,0xF04),
    DN(___,0,0xF03),
    DN(___,0,0xF04),
    DN(___,0,0xF03),
    DN(___,0,0xF04),
    DN(___,0,0xF03),
    DN(___,0,0xF04),
    DN(___,0,0xF03),
    DN(___,0,0xF04),
    DN(___,0,0xF03),
    DN(___,0,0xF04),
    DN(___,0,0xF03),
    DN(___,0,0xF04),
    DN(___,0,0xF03),
};
static const unsigned char P61[] = {
    DN(F_4,8,0xC0C),
    DN(G_4,8,0xC0C),
    DN(As4,8,0xC0B),
    DN(D_5,9,0xC0B),
    DN(F_4,9,0xC0A),
    DN(G_4,9,0xC0A),
    DN(As4,10,0xC09),
    DN(D_5,10,0xC09),
    DN(F_4,10,0xC08),
    DN(G_4,11,0xC08),
    DN(As4,11,0xC07),
    DN(D_5,11,0xC07),
    DN(F_4,11,0xC06),
    DN(G_4,8,0xC06),
    DN(As4,8,0xC05),
    DN(D_5,8,0xC05),
    DN(F_4,8,0xC04),
    DN(G_4,8,0xC04),
    DN(As4,8,0xC03),
    DN(D_5,9,0xC03),
    DN(F_4,9,0xC02),
    DN(G_4,9,0xC02),
    DN(As4,10,0xC01),
    DN(D_5,10,0xC01),
    DN(F_4,8,0xC0C),
    DN(G_4,8,0xC0C),
    DN(As4,8,0xC0B),
    DN(D_5,9,0xC0B),
    DN(F_4,9,0xC0A),
    DN(G_4,9,0xC0A),
    DN(As4,10,0xC09),
    DN(D_5,10,0xC09),
    DN(Fs4,8,0xC0C),
    DN(As4,8,0xC0C),
    DN(Cs5,8,0xC0B),
    DN(F_5,8,0xC0B),
    DN(Fs4,9,0xC0A),
    DN(As4,9,0xC0A),
    DN(Cs5,10,0xC09),
    DN(F_5,10,0xC09),
    DN(Fs4,10,0xC08),
    DN(As4,11,0xC08),
    DN(Cs5,11,0xC07),
    DN(F_5,11,0xC07),
    DN(Fs4,11,0xC06),
    DN(As4,8,0xC06),
    DN(Cs5,8,0xC05),
    DN(F_5,8,0xC05),
    DN(Fs4,8,0xC0C),
    DN(As4,8,0xC0C),
    DN(Cs5,8,0xC0B),
    DN(F_5,8,0xC0B),
    DN(Fs4,9,0xC0A),
    DN(As4,9,0xC0A),
    DN(Cs5,10,0xC09),
    DN(F_5,10,0xC09),
    DN(Fs4,8,0xC0C),
    DN(As4,8,0xC0C),
    DN(Cs5,8,0xC0B),
    DN(G_5,8,0xC0B),
    DN(Fs4,9,0xC0A),
    DN(As4,9,0xC0A),
    DN(Cs5,10,0xC09),
    DN(G_5,10,0xC09),
};
static const unsigned char P62[] = {
    DN(G_4,8,0xC0C),
    DN(As4,8,0xC0C),
    DN(Cs5,8,0xC0B),
    DN(E_5,9,0xC0B),
    DN(G_4,9,0xC0A),
    DN(As4,9,0xC0A),
    DN(Cs5,10,0xC09),
    DN(E_5,10,0xC09),
    DN(G_4,10,0xC08),
    DN(As4,11,0xC08),
    DN(Cs5,11,0xC07),
    DN(E_5,11,0xC07),
    DN(G_4,11,0xC06),
    DN(As4,8,0xC06),
    DN(Cs5,8,0xC05),
    DN(E_5,8,0xC05),
    DN(G_4,8,0xC04),
    DN(As4,8,0xC04),
    DN(Cs5,8,0xC03),
    DN(E_5,9,0xC03),
    DN(G_4,9,0xC02),
    DN(As4,9,0xC02),
    DN(Cs5,10,0xC01),
    DN(E_5,10,0xC01),
    DN(G_4,8,0xC0C),
    DN(As4,8,0xC0C),
    DN(Cs5,8,0xC0B),
    DN(E_5,9,0xC0B),
    DN(G_4,9,0xC0A),
    DN(As4,9,0xC0A),
    DN(Cs5,10,0xC09),
    DN(E_5,10,0xC09),
    DN(G_4,8,0xC0C),
    DN(A_4,8,0xC0C),
    DN(Cs5,8,0xC0B),
    DN(E_5,8,0xC0B),
    DN(G_4,9,0xC0A),
    DN(A_4,9,0xC0A),
    DN(Cs5,10,0xC09),
    DN(E_5,10,0xC09),
    DN(G_4,10,0xC08),
    DN(A_4,11,0xC08),
    DN(Cs5,11,0xC07),
    DN(E_5,11,0xC07),
    DN(G_4,11,0xC06),
    DN(A_4,8,0xC06),
    DN(Cs5,8,0xC05),
    DN(E_5,8,0xC05),
    DN(G_4,8,0xC04),
    DN(A_4,8,0xC04),
    DN(Cs5,8,0xC03),
    DN(E_5,9,0xC03),
    DN(G_4,9,0xC02),
    DN(A_4,9,0xC02),
    DN(Cs5,10,0xC01),
    DN(E_5,10,0xC01),
    DN(___,0,0xE00),
    DN(___,0,0x000),
    DN(___,0,0x000),
    DN(___,0,0x000),
    DN(___,0,0x000),
    DN(___,0,0x000),
    DN(___,0,0x000),
    DN(___,0,0x000),
};
static const unsigned char P63[] = {
    DN(G_5,7,0x000),
    DN(___,0,0x000),
    DN(A_5,7,0x000),
    DN(___,0,0x000),
    DN(___,0,0x000),
    DN(___,0,0x000),
    DN(E_6,7,0x000),
    DN(___,0,0x000),
    DN(___,0,0x000),
    DN(___,0,0x000),
    DN(G_5,7,0x000),
    DN(___,0,0x000),
    DN(A_5,7,0x000),
    DN(___,0,0x000),
    DN(___,0,0x000),
    DN(___,0,0x000),
    DN(E_6,7,0x000),
    DN(___,0,0x000),
    DN(G_5,7,0x000),
    DN(___,0,0x000),
    DN(___,0,0x000),
    DN(___,0,0x000),
    DN(A_5,7,0x000),
    DN(___,0,0x000),
    DN(___,0,0x000),
    DN(___,0,0x000),
    DN(E_6,7,0x000),
    DN(___,0,0x000),
    DN(G_5,7,0x000),
    DN(___,0,0x000),
    DN(___,0,0x000),
    DN(___,0,0x000),
    DN(A_5,7,0x000),
    DN(___,0,0x000),
    DN(Cs6,7,0x000),
    DN(___,0,0x000),
    DN(___,0,0x000),
    DN(___,0,0x000),
    DN(G_5,7,0x000),
    DN(___,0,0x000),
    DN(___,0,0x000),
    DN(___,0,0x000),
    DN(A_5,7,0x000),
    DN(___,0,0x000),
    DN(Cs6,7,0x000),
    DN(___,0,0x000),
    DN(___,0,0x000),
    DN(___,0,0x000),
    DN(G_5,7,0x000),
    DN(___,0,0x000),
    DN(A_5,7,0x000),
    DN(___,0,0x000),
    DN(___,0,0x000),
    DN(___,0,0x000),
    DN(Cs6,7,0x000),
    DN(___,0,0x000),
    DN(___,0,0x000),
    DN(___,0,0x000),
    DN(G_5,7,0x000),
    DN(___,0,0x000),
    DN(Gs5,7,0x000),
    DN(___,0,0x000),
    DN(___,0,0x000),
    DN(___,0,0x000),
};

static const unsigned char itSquareSP5[] = {
    DN(48,0,0x000),
    DN(36,0,0x000),
    DN(___,0,0x000),
    DN(___,0,0x000),
    DN(___,0,0x000),
    DN(___,0,0x000),
    DN(___,0,0x000),
    DN(___,0,0x000),
    DN(___,0,0x000),
    DN(___,0,0x000),
    DN(___,0,0x000),
    DN(___,0,0x000),
    DN(___,0,0x000),
    DN(___,0,0x000),
    DN(___,0,0x000),
    DN(___,0,0x000),
    DN(___,0,0x000),
    DN(___,0,0x000),
    DN(___,0,0x000),
    DN(___,0,0x000),
    DN(___,0,0x000),
    DN(___,0,0x000),
    DN(___,0,0x000),
    DN(___,0,0x000),
    DN(___,0,0x000),
    DN(___,0,0x000),
    DN(___,0,0x000),
    DN(___,0,0x000),
    DN(___,0,0x000),
    DN(___,0,0x000),
    DN(___,0,0x000),
    DN(___,1,0x000),
};
static const unsigned char itSquareSP7[] = {
    DN(36,0,0x000),
    DN(55,0,0x000),
    DN(48,1,0x000),
    DN(___,0,0x000),
    DN(___,0,0x000),
    DN(___,0,0x000),
    DN(___,0,0x000),
    DN(___,0,0x000),
    DN(___,0,0x000),
    DN(___,0,0x000),
    DN(___,0,0x000),
    DN(___,0,0x000),
    DN(___,0,0x000),
    DN(___,0,0x000),
    DN(___,0,0x000),
    DN(___,0,0x000),
    DN(___,0,0x000),
    DN(___,0,0x000),
    DN(___,0,0x000),
    DN(___,0,0x000),
    DN(___,0,0x000),
    DN(___,0,0x000),
    DN(___,0,0x000),
    DN(___,0,0x000),
    DN(___,0,0x000),
    DN(___,0,0x000),
    DN(___,0,0x000),
    DN(___,0,0x000),
    DN(___,0,0x000),
    DN(___,0,0x000),
    DN(___,0,0x000),
    DN(___,1,0x000),
};
static const unsigned char itSquareSP8[] = {
    DN(48,0,0x000),
    DN(48,0,0x000),
    DN(36,0,0x000),
    DN(___,0,0x000),
    DN(___,0,0x000),
    DN(___,0,0x000),
    DN(___,0,0x000),
    DN(___,0,0x000),
    DN(___,0,0x000),
    DN(___,0,0x000),
    DN(___,0,0x000),
    DN(___,0,0x000),
    DN(___,0,0x000),
    DN(___,0,0x000),
    DN(___,0,0x000),
    DN(___,0,0x000),
    DN(___,0,0x000),
    DN(___,0,0x000),
    DN(___,0,0x000),
    DN(___,0,0x000),
    DN(___,0,0x000),
    DN(___,0,0x000),
    DN(___,0,0x000),
    DN(___,0,0x000),
    DN(___,0,0x000),
    DN(___,0,0x000),
    DN(___,0,0x000),
    DN(___,0,0x000),
    DN(___,0,0x000),
    DN(___,0,0x000),
    DN(___,0,0x000),
    DN(___,1,0x000),
};
static const unsigned char itSquareSP9[] = {
    DN(48,0,0x000),
    DN(48,0,0x000),
    DN(36,0,0x000),
    DN(___,0,0x000),
    DN(___,0,0x000),
    DN(___,0,0x000),
    DN(___,0,0x000),
    DN(___,0,0x000),
    DN(___,0,0x000),
    DN(___,0,0x000),
    DN(___,0,0x000),
    DN(___,0,0x000),
    DN(___,0,0x000),
    DN(___,0,0x000),
    DN(___,0,0x000),
    DN(___,0,0x000),
    DN(___,0,0x000),
    DN(___,0,0x000),
    DN(___,0,0x000),
    DN(___,0,0x000),
    DN(___,0,0x000),
    DN(___,0,0x000),
    DN(___,0,0x000),
    DN(___,0,0x000),
    DN(___,0,0x000),
    DN(___,0,0x000),
    DN(___,0,0x000),
    DN(___,0,0x000),
    DN(___,0,0x000),
    DN(___,0,0x000),
    DN(___,0,0x000),
    DN(___,1,0x000),
};
static const unsigned char itSquareSP10[] = {
    DN(48,0,0x000),
    DN(48,0,0x000),
    DN(36,0,0x000),
    DN(___,0,0x000),
    DN(___,0,0x000),
    DN(___,0,0x000),
    DN(___,0,0x000),
    DN(___,0,0x000),
    DN(___,0,0x000),
    DN(___,0,0x000),
    DN(___,0,0x000),
    DN(___,0,0x000),
    DN(___,0,0x000),
    DN(___,0,0x000),
    DN(___,0,0x000),
    DN(___,0,0x000),
    DN(___,0,0x000),
    DN(___,0,0x000),
    DN(___,0,0x000),
    DN(___,0,0x000),
    DN(___,0,0x000),
    DN(___,0,0x000),
    DN(___,0,0x000),
    DN(___,0,0x000),
    DN(___,0,0x000),
    DN(___,0,0x000),
    DN(___,0,0x000),
    DN(___,0,0x000),
    DN(___,0,0x000),
    DN(___,0,0x000),
    DN(___,0,0x000),
    DN(___,1,0x000),
};
static const unsigned char itSquareSP11[] = {
    DN(48,0,0x000),
    DN(48,0,0x000),
    DN(36,0,0x000),
    DN(___,0,0x000),
    DN(___,0,0x000),
    DN(___,0,0x000),
    DN(___,0,0x000),
    DN(___,0,0x000),
    DN(___,0,0x000),
    DN(___,0,0x000),
    DN(___,0,0x000),
    DN(___,0,0x000),
    DN(___,0,0x000),
    DN(___,0,0x000),
    DN(___,0,0x000),
    DN(___,0,0x000),
    DN(___,0,0x000),
    DN(___,0,0x000),
    DN(___,0,0x000),
    DN(___,0,0x000),
    DN(___,0,0x000),
    DN(___,0,0x000),
    DN(___,0,0x000),
    DN(___,0,0x000),
    DN(___,0,0x000),
    DN(___,0,0x000),
    DN(___,0,0x000),
    DN(___,0,0x000),
    DN(___,0,0x000),
    DN(___,0,0x000),
    DN(___,0,0x000),
    DN(___,1,0x000),
};
static const unsigned char itNoiseSP1[] = {
    DN(___,0,0x000),
    DN(36,0,0x000),
    DN(36,0,0x000),
    DN(36,4,0x000),
    DN(36,0,0x000),
    DN(36,0,0x000),
    DN(36,0,0x000),
    DN(___,0,0x000),
    DN(___,0,0x000),
    DN(___,0,0x000),
    DN(___,0,0x000),
    DN(___,0,0x000),
    DN(___,0,0x000),
    DN(___,0,0x000),
    DN(___,0,0x000),
    DN(___,0,0x000),
    DN(___,0,0x000),
    DN(___,0,0x000),
    DN(___,0,0x000),
    DN(___,0,0x000),
    DN(___,0,0x000),
    DN(___,0,0x000),
    DN(___,0,0x000),
    DN(___,0,0x000),
    DN(___,0,0x000),
    DN(___,0,0x000),
    DN(___,0,0x000),
    DN(___,0,0x000),
    DN(___,0,0x000),
    DN(___,0,0x000),
    DN(___,0,0x000),
    DN(___,1,0x000),
};
static const unsigned char itNoiseSP2[] = {
    DN(___,0,0x000),
    DN(36,0,0x000),
    DN(36,0,0x000),
    DN(36,4,0x000),
    DN(36,0,0x000),
    DN(36,0,0x000),
    DN(36,0,0x000),
    DN(___,0,0x000),
    DN(___,0,0x000),
    DN(___,0,0x000),
    DN(___,0,0x000),
    DN(___,0,0x000),
    DN(___,0,0x000),
    DN(___,0,0x000),
    DN(___,0,0x000),
    DN(___,0,0x000),
    DN(___,0,0x000),
    DN(___,0,0x000),
    DN(___,0,0x000),
    DN(___,0,0x000),
    DN(___,0,0x000),
    DN(___,0,0x000),
    DN(___,0,0x000),
    DN(___,0,0x000),
    DN(___,0,0x000),
    DN(___,0,0x000),
    DN(___,0,0x000),
    DN(___,0,0x000),
    DN(___,0,0x000),
    DN(___,0,0x000),
    DN(___,0,0x000),
    DN(___,1,0x000),
};
static const unsigned char itNoiseSP3[] = {
    DN(36,0,0x000),
    DN(36,0,0x000),
    DN(30,0,0x000),
    DN(30,0,0x000),
    DN(36,0,0x000),
    DN(36,0,0x000),
    DN(30,0,0x000),
    DN(30,0,0x000),
    DN(36,0,0x000),
    DN(36,0,0x000),
    DN(30,0,0x000),
    DN(30,0,0x000),
    DN(36,0,0x000),
    DN(36,0,0x000),
    DN(30,0,0x000),
    DN(30,0,0x000),
    DN(36,0,0x000),
    DN(36,0,0x000),
    DN(30,0,0x000),
    DN(30,0,0x000),
    DN(36,0,0x000),
    DN(36,0,0x000),
    DN(30,0,0x000),
    DN(30,0,0x000),
    DN(36,0,0x000),
    DN(36,0,0x000),
    DN(30,0,0x000),
    DN(30,0,0x000),
    DN(36,0,0x000),
    DN(36,0,0x000),
    DN(30,0,0x000),
    DN(30,1,0x000),
};
static const unsigned char itNoiseSP4[] = {
    DN(36,0,0x000),
    DN(___,0,0x000),
    DN(___,0,0x000),
    DN(___,0,0x000),
    DN(35,0,0x000),
    DN(___,0,0x000),
    DN(___,0,0x000),
    DN(___,0,0x000),
    DN(34,0,0x000),
    DN(___,0,0x000),
    DN(___,0,0x000),
    DN(___,0,0x000),
    DN(33,0,0x000),
    DN(___,0,0x000),
    DN(___,0,0x000),
    DN(___,0,0x000),
    DN(32,0,0x000),
    DN(___,0,0x000),
    DN(___,0,0x000),
    DN(___,0,0x000),
    DN(31,0,0x000),
    DN(___,0,0x000),
    DN(___,0,0x000),
    DN(___,0,0x000),
    DN(30,0,0x000),
    DN(___,0,0x000),
    DN(___,0,0x000),
    DN(___,0,0x000),
    DN(29,0,0x000),
    DN(___,0,0x000),
    DN(___,0,0x000),
    DN(___,21,0x000),
};
static const unsigned char itNoiseSP5[] = {
    DN(___,0,0x000),
    DN(36,0,0x000),
    DN(36,0,0x000),
    DN(36,4,0x000),
    DN(36,0,0x000),
    DN(36,0,0x000),
    DN(36,0,0x000),
    DN(___,0,0x000),
    DN(___,0,0x000),
    DN(___,0,0x000),
    DN(___,0,0x000),
    DN(___,0,0x000),
    DN(___,0,0x000),
    DN(___,0,0x000),
    DN(___,0,0x000),
    DN(___,0,0x000),
    DN(___,0,0x000),
    DN(___,0,0x000),
    DN(___,0,0x000),
    DN(___,0,0x000),
    DN(___,0,0x000),
    DN(___,0,0x000),
    DN(___,0,0x000),
    DN(___,0,0x000),
    DN(___,0,0x000),
    DN(___,0,0x000),
    DN(___,0,0x000),
    DN(___,0,0x000),
    DN(___,0,0x000),
    DN(___,0,0x000),
    DN(___,0,0x000),
    DN(___,1,0x000),
};
static const unsigned char itNoiseSP6[] = {
    DN(___,0,0x000),
    DN(36,0,0x000),
    DN(36,0,0x000),
    DN(36,4,0x000),
    DN(36,0,0x000),
    DN(36,0,0x000),
    DN(36,0,0x000),
    DN(___,0,0x000),
    DN(___,0,0x000),
    DN(___,0,0x000),
    DN(___,0,0x000),
    DN(___,0,0x000),
    DN(___,0,0x000),
    DN(___,0,0x000),
    DN(___,0,0x000),
    DN(___,0,0x000),
    DN(___,0,0x000),
    DN(___,0,0x000),
    DN(___,0,0x000),
    DN(___,0,0x000),
    DN(___,0,0x000),
    DN(___,0,0x000),
    DN(___,0,0x000),
    DN(___,0,0x000),
    DN(___,0,0x000),
    DN(___,0,0x000),
    DN(___,0,0x000),
    DN(___,0,0x000),
    DN(___,0,0x000),
    DN(___,0,0x000),
    DN(___,0,0x000),
    DN(___,1,0x000),
};
static const unsigned char itNoiseSP7[] = {
    DN(___,0,0x000),
    DN(36,0,0x000),
    DN(36,0,0x000),
    DN(36,4,0x000),
    DN(36,0,0x000),
    DN(36,0,0x000),
    DN(36,0,0x000),
    DN(___,0,0x000),
    DN(___,0,0x000),
    DN(___,0,0x000),
    DN(___,0,0x000),
    DN(___,0,0x000),
    DN(___,0,0x000),
    DN(___,0,0x000),
    DN(___,0,0x000),
    DN(___,0,0x000),
    DN(___,0,0x000),
    DN(___,0,0x000),
    DN(___,0,0x000),
    DN(___,0,0x000),
    DN(___,0,0x000),
    DN(___,0,0x000),
    DN(___,0,0x000),
    DN(___,0,0x000),
    DN(___,0,0x000),
    DN(___,0,0x000),
    DN(___,0,0x000),
    DN(___,0,0x000),
    DN(___,0,0x000),
    DN(___,0,0x000),
    DN(___,0,0x000),
    DN(___,1,0x000),
};
static const unsigned char itNoiseSP8[] = {
    DN(___,0,0x000),
    DN(36,0,0x000),
    DN(36,0,0x000),
    DN(36,4,0x000),
    DN(36,0,0x000),
    DN(36,0,0x000),
    DN(36,0,0x000),
    DN(___,0,0x000),
    DN(___,0,0x000),
    DN(___,0,0x000),
    DN(___,0,0x000),
    DN(___,0,0x000),
    DN(___,0,0x000),
    DN(___,0,0x000),
    DN(___,0,0x000),
    DN(___,0,0x000),
    DN(___,0,0x000),
    DN(___,0,0x000),
    DN(___,0,0x000),
    DN(___,0,0x000),
    DN(___,0,0x000),
    DN(___,0,0x000),
    DN(___,0,0x000),
    DN(___,0,0x000),
    DN(___,0,0x000),
    DN(___,0,0x000),
    DN(___,0,0x000),
    DN(___,0,0x000),
    DN(___,0,0x000),
    DN(___,0,0x000),
    DN(___,0,0x000),
    DN(___,1,0x000),
};
static const unsigned char itNoiseSP9[] = {
    DN(___,0,0x000),
    DN(36,0,0x000),
    DN(36,0,0x000),
    DN(36,4,0x000),
    DN(36,0,0x000),
    DN(36,0,0x000),
    DN(36,0,0x000),
    DN(___,0,0x000),
    DN(___,0,0x000),
    DN(___,0,0x000),
    DN(___,0,0x000),
    DN(___,0,0x000),
    DN(___,0,0x000),
    DN(___,0,0x000),
    DN(___,0,0x000),
    DN(___,0,0x000),
    DN(___,0,0x000),
    DN(___,0,0x000),
    DN(___,0,0x000),
    DN(___,0,0x000),
    DN(___,0,0x000),
    DN(___,0,0x000),
    DN(___,0,0x000),
    DN(___,0,0x000),
    DN(___,0,0x000),
    DN(___,0,0x000),
    DN(___,0,0x000),
    DN(___,0,0x000),
    DN(___,0,0x000),
    DN(___,0,0x000),
    DN(___,0,0x000),
    DN(___,1,0x000),
};
static const unsigned char itNoiseSP10[] = {
    DN(___,0,0x000),
    DN(36,0,0x000),
    DN(36,0,0x000),
    DN(36,4,0x000),
    DN(36,0,0x000),
    DN(36,0,0x000),
    DN(36,0,0x000),
    DN(___,0,0x000),
    DN(___,0,0x000),
    DN(___,0,0x000),
    DN(___,0,0x000),
    DN(___,0,0x000),
    DN(___,0,0x000),
    DN(___,0,0x000),
    DN(___,0,0x000),
    DN(___,0,0x000),
    DN(___,0,0x000),
    DN(___,0,0x000),
    DN(___,0,0x000),
    DN(___,0,0x000),
    DN(___,0,0x000),
    DN(___,0,0x000),
    DN(___,0,0x000),
    DN(___,0,0x000),
    DN(___,0,0x000),
    DN(___,0,0x000),
    DN(___,0,0x000),
    DN(___,0,0x000),
    DN(___,0,0x000),
    DN(___,0,0x000),
    DN(___,0,0x000),
    DN(___,1,0x000),
};
static const unsigned char itNoiseSP11[] = {
    DN(___,0,0x000),
    DN(36,0,0x000),
    DN(36,0,0x000),
    DN(36,4,0x000),
    DN(36,0,0x000),
    DN(36,0,0x000),
    DN(36,0,0x000),
    DN(___,0,0x000),
    DN(___,0,0x000),
    DN(___,0,0x000),
    DN(___,0,0x000),
    DN(___,0,0x000),
    DN(___,0,0x000),
    DN(___,0,0x000),
    DN(___,0,0x000),
    DN(___,0,0x000),
    DN(___,0,0x000),
    DN(___,0,0x000),
    DN(___,0,0x000),
    DN(___,0,0x000),
    DN(___,0,0x000),
    DN(___,0,0x000),
    DN(___,0,0x000),
    DN(___,0,0x000),
    DN(___,0,0x000),
    DN(___,0,0x000),
    DN(___,0,0x000),
    DN(___,0,0x000),
    DN(___,0,0x000),
    DN(___,0,0x000),
    DN(___,0,0x000),
    DN(___,1,0x000),
};
static const unsigned char itNoiseSP12[] = {
    DN(___,0,0x000),
    DN(36,0,0x000),
    DN(36,0,0x000),
    DN(36,4,0x000),
    DN(36,0,0x000),
    DN(36,0,0x000),
    DN(36,0,0x000),
    DN(___,0,0x000),
    DN(___,0,0x000),
    DN(___,0,0x000),
    DN(___,0,0x000),
    DN(___,0,0x000),
    DN(___,0,0x000),
    DN(___,0,0x000),
    DN(___,0,0x000),
    DN(___,0,0x000),
    DN(___,0,0x000),
    DN(___,0,0x000),
    DN(___,0,0x000),
    DN(___,0,0x000),
    DN(___,0,0x000),
    DN(___,0,0x000),
    DN(___,0,0x000),
    DN(___,0,0x000),
    DN(___,0,0x000),
    DN(___,0,0x000),
    DN(___,0,0x000),
    DN(___,0,0x000),
    DN(___,0,0x000),
    DN(___,0,0x000),
    DN(___,0,0x000),
    DN(___,1,0x000),
};
static const unsigned char itNoiseSP13[] = {
    DN(___,0,0x000),
    DN(36,0,0x000),
    DN(36,0,0x000),
    DN(36,4,0x000),
    DN(36,0,0x000),
    DN(36,0,0x000),
    DN(36,0,0x000),
    DN(___,0,0x000),
    DN(___,0,0x000),
    DN(___,0,0x000),
    DN(___,0,0x000),
    DN(___,0,0x000),
    DN(___,0,0x000),
    DN(___,0,0x000),
    DN(___,0,0x000),
    DN(___,0,0x000),
    DN(___,0,0x000),
    DN(___,0,0x000),
    DN(___,0,0x000),
    DN(___,0,0x000),
    DN(___,0,0x000),
    DN(___,0,0x000),
    DN(___,0,0x000),
    DN(___,0,0x000),
    DN(___,0,0x000),
    DN(___,0,0x000),
    DN(___,0,0x000),
    DN(___,0,0x000),
    DN(___,0,0x000),
    DN(___,0,0x000),
    DN(___,0,0x000),
    DN(___,1,0x000),
};
static const unsigned char itNoiseSP14[] = {
    DN(___,0,0x000),
    DN(36,0,0x000),
    DN(36,0,0x000),
    DN(36,4,0x000),
    DN(36,0,0x000),
    DN(36,0,0x000),
    DN(36,0,0x000),
    DN(___,0,0x000),
    DN(___,0,0x000),
    DN(___,0,0x000),
    DN(___,0,0x000),
    DN(___,0,0x000),
    DN(___,0,0x000),
    DN(___,0,0x000),
    DN(___,0,0x000),
    DN(___,0,0x000),
    DN(___,0,0x000),
    DN(___,0,0x000),
    DN(___,0,0x000),
    DN(___,0,0x000),
    DN(___,0,0x000),
    DN(___,0,0x000),
    DN(___,0,0x000),
    DN(___,0,0x000),
    DN(___,0,0x000),
    DN(___,0,0x000),
    DN(___,0,0x000),
    DN(___,0,0x000),
    DN(___,0,0x000),
    DN(___,0,0x000),
    DN(___,0,0x000),
    DN(___,1,0x000),
};
static const unsigned char itNoiseSP15[] = {
    DN(___,0,0x000),
    DN(36,0,0x000),
    DN(36,0,0x000),
    DN(36,4,0x000),
    DN(36,0,0x000),
    DN(36,0,0x000),
    DN(36,0,0x000),
    DN(___,0,0x000),
    DN(___,0,0x000),
    DN(___,0,0x000),
    DN(___,0,0x000),
    DN(___,0,0x000),
    DN(___,0,0x000),
    DN(___,0,0x000),
    DN(___,0,0x000),
    DN(___,0,0x000),
    DN(___,0,0x000),
    DN(___,0,0x000),
    DN(___,0,0x000),
    DN(___,0,0x000),
    DN(___,0,0x000),
    DN(___,0,0x000),
    DN(___,0,0x000),
    DN(___,0,0x000),
    DN(___,0,0x000),
    DN(___,0,0x000),
    DN(___,0,0x000),
    DN(___,0,0x000),
    DN(___,0,0x000),
    DN(___,0,0x000),
    DN(___,0,0x000),
    DN(___,1,0x000),
};
static const unsigned char* const order1[] = {P0,P4,P8,P5,P0,P4,P9,P11,P13,P16,P19,P41,P13,P16,P19,P22,P0,P4,P8,P5,P0,P4,P9,P11,P42,P43,P45,P44,P42,P43,P45,P44,P53,P54,P61,P62,P53,P54,P55,P56};
static const unsigned char* const order2[] = {P1,P1,P1,P1,P1,P1,P1,P1,P14,P17,P20,P23,P14,P17,P20,P23,P27,P29,P30,P31,P29,P30,P31,P36,P14,P17,P20,P40,P46,P47,P49,P50,P29,P30,P31,P63,P29,P30,P31,P1};
static const unsigned char* const order3[] = {P6,P2,P10,P7,P6,P2,P10,P12,P15,P18,P21,P24,P15,P18,P21,P26,P6,P2,P10,P7,P6,P2,P10,P12,P15,P18,P21,P24,P15,P18,P21,P26,P6,P2,P10,P7,P6,P2,P10,P58};
static const unsigned char* const order4[] = {P3,P3,P3,P3,P3,P3,P3,P3,P3,P3,P3,P3,P3,P3,P3,P25,P28,P28,P28,P32,P33,P34,P35,P38,P28,P28,P28,P28,P48,P48,P48,P51,P52,P34,P35,P35,P35,P34,P35,P59};

static const hUGEDutyInstr_t duty_instruments[] = {
    {8,0,240,0,128},
    {8,64,240,0,128},
    {8,128,240,0,128},
    {8,192,240,0,128},
    {8,128,240,itSquareSP5,128},
    {8,128,240,0,128},
    {8,179,209,itSquareSP7,192},
    {8,0,240,itSquareSP8,128},
    {8,64,240,itSquareSP9,128},
    {8,128,240,itSquareSP10,128},
    {8,192,240,itSquareSP11,128},
    {8,128,240,0,128},
    {8,128,240,0,128},
    {8,128,240,0,128},
    {8,128,240,0,128},
};
static const hUGEWaveInstr_t wave_instruments[] = {
    {0,32,0,0,128},
    {0,32,1,0,128},
    {0,32,2,0,128},
    {0,32,3,0,128},
    {0,32,4,0,128},
    {0,32,5,0,128},
    {0,32,6,0,128},
    {0,32,7,0,128},
    {0,32,8,0,128},
    {0,32,9,0,128},
    {0,32,10,0,128},
    {0,32,11,0,128},
    {0,32,12,0,128},
    {0,32,13,0,128},
    {0,32,14,0,128},
};
static const hUGENoiseInstr_t noise_instruments[] = {
    {144,itNoiseSP1,124,0,0},
    {144,itNoiseSP2,115,0,0},
    {241,itNoiseSP3,0,0,0},
    {247,itNoiseSP4,0,0,0},
    {112,itNoiseSP5,240,0,0},
    {240,itNoiseSP6,0,0,0},
    {240,itNoiseSP7,0,0,0},
    {240,itNoiseSP8,0,0,0},
    {240,itNoiseSP9,0,0,0},
    {240,itNoiseSP10,0,0,0},
    {240,itNoiseSP11,0,0,0},
    {240,itNoiseSP12,0,0,0},
    {240,itNoiseSP13,0,0,0},
    {240,itNoiseSP14,0,0,0},
    {240,itNoiseSP15,0,0,0},
};

static const unsigned char waves[] = {
    0,17,34,51,68,85,102,119,136,153,170,187,204,221,238,255,
    32,2,34,51,68,85,102,119,136,153,170,187,204,221,238,255,
    48,1,34,51,68,85,102,119,136,153,170,187,204,221,238,255,
    80,1,34,51,68,85,102,119,136,153,170,187,204,221,238,255,
    112,0,34,51,68,85,102,119,136,153,170,187,204,221,238,255,
    147,0,18,35,52,68,85,102,119,136,153,170,187,204,221,238,
    182,50,17,34,52,69,86,103,120,137,154,171,188,205,222,239,
    201,118,84,67,52,68,69,86,102,119,136,153,170,187,204,221,
    238,238,238,238,238,238,238,0,0,0,0,0,0,0,0,0,
    254,221,204,187,170,153,136,119,138,189,241,36,87,138,189,238,
    132,17,97,237,87,71,90,173,206,163,23,121,221,32,3,71,
    215,172,193,34,97,109,119,170,46,236,3,130,3,64,192,154,
    87,147,125,238,19,125,14,163,78,68,135,37,236,140,29,197,
    90,174,60,150,206,61,130,186,34,184,133,21,131,49,167,129,
    168,211,14,203,177,184,99,30,120,89,193,237,50,17,64,49,
    87,209,14,152,67,96,151,49,171,42,39,136,208,134,123,70,
};
const void __at(255) __bank_strap_in_SONG;
const hUGESong_t strap_in_SONG = {4, &order_cnt, order1, order2, order3,order4, duty_instruments, wave_instruments, noise_instruments, routines, waves};
